<?xml version="1.0" encoding="utf-8"?>
<!-- Generator: Adobe Illustrator 25.2.0, SVG Export Plug-In . SVG Version: 6.00 Build 0)  -->
<svg version="1.1" id="Calque_1" xmlns="http://www.w3.org/2000/svg" xmlns:xlink="http://www.w3.org/1999/xlink" x="0px" y="0px"
	 viewBox="0 0 154.04 155.04" style="enable-background:new 0 0 154.04 155.04;" xml:space="preserve">
<style type="text/css">
	.st0{fill:#693D5D;}
	.st1{fill:#C070AA;}
	.st2{fill:#C271AC;}
	.st3{fill:#42273B;}
	.st4{fill:#3F2538;}
	.st5{fill:#45283D;}
	.st6{fill:#3D2537;}
	.st7{fill:#BD6EA8;}
	.st8{fill:#9E5B8C;}
	.st9{fill:#A15D8F;}
	.st10{fill:#A86195;}
	.st11{fill:#A35E91;}
	.st12{fill:#BA6CA5;}
	.st13{fill:#9C5A8B;}
	.st14{fill:#A66093;}
	.st15{fill:#B76AA2;}
	.st16{fill:#824B73;}
	.st17{fill:#AB6398;}
	.st18{fill:#AF659B;}
	.st19{fill:#7A466C;}
	.st20{fill:#975786;}
	.st21{fill:#B1679D;}
	.st22{fill:#7E4970;}
	.st23{fill:#774569;}
	.st24{fill:#724266;}
	.st25{fill:#AB6397;}
	.st26{fill:#B3689F;}
	.st27{fill:#6C3E60;}
	.st28{fill:#9A5889;}
	.st29{fill:#AE659A;}
	.st30{fill:#482B41;}
	.st31{fill:#B569A1;}
	.st32{fill:#704163;}
	.st33{fill:#965685;}
	.st34{fill:#4C2D44;}
	.st35{fill:#A76194;}
	.st36{fill:#5F3755;}
	.st37{fill:#935482;}
	.st38{fill:#B86BA3;}
	.st39{fill:#683D5D;}
	.st40{fill:#7A476D;}
	.st41{fill:#492B41;}
	.st42{fill:#77456A;}
	.st43{fill:#5E3754;}
	.st44{fill:#5A3450;}
	.st45{fill:#53304A;}
	.st46{fill:#663B5B;}
	.st47{fill:#6C3F60;}
	.st48{fill:#854D76;}
	.st49{fill:#57334D;}
	.st50{fill:#734266;}
	.st51{fill:#502F47;}
	.st52{fill:#8F527F;}
	.st53{fill:#623957;}
	.st54{fill:#623A58;}
	.st55{fill:#502F48;}
	.st56{fill:#53314A;}
	.st57{fill:#8C507C;}
	.st58{fill:#704164;}
	.st59{fill:#894F79;}
	.st60{fill:#FEFEFE;}
	.st61{fill:#905380;}
	.st62{fill:#995888;}
	.st63{fill:#884E79;}
	.st64{fill:#854C76;}
	.st65{fill:#864D77;}
	.st66{fill:#B2679E;}
	.st67{fill:#B669A1;}
	.st68{fill:#A55F92;}
	.st69{fill:#A76094;}
	.st70{fill:#593450;}
	.st71{fill:#56324D;}
	.st72{fill:#78456A;}
	.st73{fill:#AC6398;}
	.st74{fill:#B0669C;}
	.st75{fill:#AE649A;}
	.st76{fill:#A96296;}
	.st77{fill:#6C3F61;}
	.st78{fill:#653A5A;}
	.st79{fill:#8C517D;}
	.st80{fill:#613956;}
</style>
<g>
	<path class="st0" d="M55.65,42.54c-2.2-3.83-4.39-7.65-6.59-11.48c-0.18-0.31-0.38-0.61-0.5-0.95c-0.18-0.48,0.01-0.87,0.44-1.11
		c0.43-0.24,0.77-0.05,1.03,0.3c0.21,0.29,0.38,0.6,0.56,0.91c2.35,4.06,4.69,8.13,7.04,12.19c0.22,0.38,0.48,0.73,0.71,1.1
		c0.41,0.27,0.64,0.69,0.89,1.1c1.71,2.92,3.36,5.87,5.11,8.77c3.73,6.44,7.43,12.9,11.39,19.3c0.32-1.83,0.23-3.66,0.25-5.48
		c0.02-1.87,0.01-3.75,0-5.62c-0.01-1.87,0.03-3.75-0.03-5.62c-0.03-1.92-0.04-3.84,0-5.75c-0.04-1.76-0.04-3.52,0-5.27
		c-0.06-1.47-0.02-2.95-0.02-4.42c0-0.48,0.04-0.96,0.34-1.36c0.04-0.58,0.28-0.96,0.93-0.93c0.6,0.03,0.77,0.42,0.81,0.93
		c0.46,0.63,0.35,1.37,0.35,2.07c0,1.23,0.04,2.46-0.02,3.69c0.04,1.75,0.04,3.51,0,5.26c0.04,1.84,0.03,3.68,0,5.52
		c-0.08,5.34,0,10.68-0.04,16.02c-0.01,0.79,0.31,1.22,1,1.58c2,1.04,3.05,2.99,2.69,4.86c-0.42,2.16-1.97,3.62-4.29,3.87
		c-1.64,0.17-3.1-0.41-4.11-1.74c-1.12-1.48-1.37-3.17-0.5-4.84c0.45-0.87,0.4-1.53-0.07-2.32c-4.02-6.88-7.99-13.79-11.98-20.69
		c-0.3-0.52-0.66-0.99-0.96-1.51c-1.15-2.45-2.67-4.69-3.95-7.06C55.91,43.44,55.61,43.06,55.65,42.54z"/>
	<path class="st1" d="M29.37,56.45c0.6-1.68,1.47-3.21,2.62-4.58c0.79,0.45,0.64,1.23,0.64,1.92c0.01,3.86-0.01,7.73-0.01,11.59
		c-0.02,14.3-0.02,28.61,0.02,42.91c0,0.73,0.19,1.53-0.42,2.16c-1.23-1.01-2.24-2.2-2.91-3.65c-0.07-0.83-0.08-1.67-0.08-2.51
		c0-14.2,0-28.39,0-42.59C29.22,59.95,29.15,58.19,29.37,56.45z"/>
	<path class="st2" d="M29.37,56.45c0.27,0.43,0.25,0.91,0.25,1.39c0,15.92,0,31.84-0.01,47.75c0,0.42,0.15,0.9-0.3,1.21
		c-1.51-2.23-2.01-4.77-2.02-7.37c-0.05-11.25-0.07-22.5,0.01-33.74C27.3,62.49,27.91,59.35,29.37,56.45z"/>
	<path class="st3" d="M123.22,107.95c-0.23,0.84-0.92,1.33-1.48,1.92c-0.53,0.19-0.6-0.21-0.7-0.55c-0.12-0.43-0.1-0.87-0.1-1.31
		c0-17.84,0-35.69,0-53.53c0-0.4-0.02-0.8,0.06-1.19c0.09-0.44,0.19-0.88,0.78-0.89c0.49,0.88,1.34,1.55,1.48,2.63
		c-0.26,16.85-0.05,33.7-0.11,50.55C123.15,106.36,123.28,107.16,123.22,107.95z"/>
	<path class="st4" d="M123.22,107.95c-0.52-0.6-0.44-1.34-0.44-2.03c-0.01-16.15-0.01-32.29,0.01-48.44c0-0.83-0.2-1.75,0.48-2.47
		c0.78,0.99,1.21,2.13,1.44,3.35c-0.27,7.24-0.07,14.49-0.1,21.73c-0.03,8.41-0.12,16.82,0.07,25.23
		C124.48,106.36,123.89,107.18,123.22,107.95z"/>
	<path class="st5" d="M121.79,52.39c-0.49,0.25-0.45,0.7-0.45,1.14c0,18.45,0,36.91,0.01,55.36c0,0.36-0.17,0.84,0.4,0.98
		c-0.53,0.94-1.56,1.31-2.3,2.01c-0.5-0.47-0.38-1.1-0.4-1.68c-0.07-2.1,0.11-4.21-0.11-6.31c1.51-4.12,1.03-8.41,1.06-12.65
		c0.04-6.05,0-12.11,0.01-18.16c0.01-4.26,0.16-8.52-0.92-12.7c0.34-2.96,0.16-5.93,0.22-8.9c0.01-0.54-0.18-1.22,0.58-1.49
		C120.66,50.68,121.26,51.51,121.79,52.39z"/>
	<path class="st6" d="M124.68,105.32c-0.41-0.41-0.35-0.94-0.35-1.45c0-14.61,0-29.22,0-43.83c0-0.58-0.07-1.19,0.37-1.68
		c0.9,2.52,1.41,5.11,1.41,7.8c-0.01,10.93,0,21.86,0,32.79C126.12,101.19,125.58,103.3,124.68,105.32z"/>
	<path class="st7" d="M32.21,110.45c0.01-2.63,0.03-5.26,0.03-7.9c0-16.31,0-32.63,0-48.94c0-0.59,0.09-1.2-0.26-1.75
		c0.39-0.69,0.88-1.3,1.46-1.84c0.61,0.64,0.57,1.46,0.58,2.25c0.03,2.04,0.01,4.07,0.01,6.11c0,0.47-0.07,0.96,0.22,1.39
		c0.02,1.59-0.66,3.05-0.85,4.6c-0.12,0.39-0.11,0.79-0.11,1.19c0,11.02,0,22.04,0,33.07c0,0.36-0.02,0.72,0.07,1.07
		c0.25,1.87,0.86,3.59,2,5.11c0.22,0.29,0.4,0.59,0.28,0.98c-0.35,1.74-0.1,3.5-0.18,5.24c-0.03,0.58,0.11,1.21-0.35,1.7
		C33.98,112.2,33.05,111.39,32.21,110.45z"/>
	<path class="st8" d="M64.53,41.99c1.15-1.37,2.62-2.17,4.36-2.51c0.42,0.41,0.35,0.94,0.35,1.44c0.02,1.42,0.01,2.84,0.02,4.25
		c0.08,0.57-0.32,0.95-0.57,1.39c-0.45,0.79-0.74,1.54,0.41,2.01c0.28,0.11,0.41,0.36,0.39,0.67c-0.1,1.95,0.19,3.91-0.18,5.86
		c-0.08,0.15-0.21,0.28-0.37,0.24c-1.54-0.33-3.1-0.59-4.24-1.84c-0.13-0.25-0.21-0.52-0.22-0.8
		C64.45,49.13,64.34,45.56,64.53,41.99z"/>
	<path class="st9" d="M66.45,89.02c-1.03,2.25-2.26,4.39-3.58,6.47c-0.91-0.15-0.8-0.89-0.81-1.48c-0.05-2.43-0.01-4.87-0.02-7.3
		c0-0.52-0.03-1.03-0.1-1.55c0.58-2.23,1.18-2.73,3.37-2.73c7.65-0.01,15.31-0.01,22.96,0.01c0.66,0,1.37-0.15,1.93,0.4
		c0.05,0.17,0,0.29-0.16,0.37c-0.79,0.3-1.61,0.17-2.42,0.18c-0.57-0.01-1.14,0.04-1.72,0c-0.64,0-1.27,0.03-1.91,0
		c-0.57,0.02-1.13,0.03-1.7,0c-0.71,0.01-1.43,0.03-2.14,0c-0.65,0.02-1.3,0.02-1.95,0c-0.81,0.03-1.61,0.02-2.42,0
		c-1.48,0.04-2.96,0.04-4.44,0c-0.83,0.03-1.67,0.01-2.5,0.01c-2.23,0-2.22,0-2.23,2.18C66.61,86.73,66.69,87.89,66.45,89.02z"/>
	<path class="st0" d="M113.58,142.68c-0.68,0.02-1.14-0.33-1.45-0.88c-1.64-2.91-3.28-5.82-4.89-8.75
		c-0.52-0.95-0.15-1.71,0.71-2.23c0.9-0.54,1.74-0.35,2.25,0.56c1.68,2.94,3.34,5.88,4.93,8.86
		C115.73,141.36,114.84,142.66,113.58,142.68z"/>
	<path class="st0" d="M47.34,132.35c0.01,0.61-0.21,0.99-0.44,1.37c-1.61,2.61-3.2,5.23-4.82,7.83c-0.74,1.18-1.58,1.4-2.6,0.76
		c-0.92-0.58-1.03-1.39-0.3-2.58c1.62-2.65,3.26-5.29,4.88-7.94c0.49-0.8,1.16-1.07,2.03-0.83
		C46.84,131.17,47.29,131.69,47.34,132.35z"/>
	<path class="st0" d="M142.15,41.06c0,0.6-0.4,1.06-0.98,1.41c-2.73,1.63-5.45,3.27-8.19,4.88c-1.02,0.6-1.95,0.36-2.48-0.52
		c-0.54-0.9-0.31-1.82,0.71-2.43c2.79-1.68,5.59-3.34,8.42-4.96C140.79,38.77,142.11,39.59,142.15,41.06z"/>
	<path class="st0" d="M13.71,115.87c-0.93-0.01-1.39-0.45-1.67-1.13c-0.32-0.77-0.14-1.5,0.53-1.91c2.98-1.83,6-3.61,9.02-5.38
		c0.71-0.42,1.33-0.05,1.78,0.5c0.49,0.6,0.64,1.3,0.19,1.99c-0.17,0.26-0.42,0.49-0.68,0.65c-2.76,1.67-5.52,3.32-8.29,4.96
		C14.27,115.74,13.94,115.9,13.71,115.87z"/>
	<path class="st0" d="M22.14,47.4c-0.36,0.05-0.75-0.16-1.13-0.37c-2.67-1.5-5.35-2.99-8.01-4.49c-1.13-0.64-1.39-1.37-0.88-2.33
		c0.53-0.99,1.42-1.25,2.53-0.65c2.79,1.52,5.57,3.09,8.35,4.62c0.83,0.45,1.11,1.15,0.84,2.01C23.6,46.91,23.07,47.38,22.14,47.4z"
		/>
	<path class="st0" d="M109.16,24.39c-1.37,0.02-2.29-1.22-1.7-2.38c1.52-2.97,3.13-5.9,4.74-8.83c0.45-0.82,1.22-1.03,2.05-0.59
		c0.85,0.45,1.42,1.19,0.92,2.16c-1.55,3-3.18,5.97-4.8,8.94C110.12,24.16,109.66,24.42,109.16,24.39z"/>
	<path class="st0" d="M142.15,113.98c-0.01,1.4-1.28,2.29-2.42,1.68c-2.94-1.59-5.83-3.25-8.71-4.94c-0.82-0.48-0.85-1.31-0.46-2.11
		c0.37-0.76,1-1.11,1.86-0.92c0.19,0.04,0.38,0.11,0.55,0.21c2.76,1.58,5.51,3.17,8.27,4.76
		C141.79,112.97,142.12,113.44,142.15,113.98z"/>
	<path class="st0" d="M46.87,22.36c-0.13,0.9-0.55,1.5-1.36,1.72c-0.85,0.23-1.49-0.15-1.9-0.88c-0.99-1.72-1.96-3.46-2.94-5.19
		c-0.57-1-1.16-2-1.69-3.02c-0.5-0.97-0.24-1.87,0.65-2.35c0.92-0.49,1.74-0.33,2.26,0.59c1.61,2.79,3.18,5.6,4.75,8.41
		C46.77,21.87,46.8,22.16,46.87,22.36z"/>
	<path class="st0" d="M145.34,75.82c1.59,0,3.19-0.02,4.78,0.01c1.11,0.02,1.77,0.66,1.79,1.65c0.02,1.04-0.67,1.75-1.83,1.76
		c-3.19,0.02-6.38,0.03-9.57,0c-1.19-0.01-1.79-0.69-1.75-1.8c0.04-1.04,0.62-1.59,1.8-1.61C142.15,75.8,143.75,75.82,145.34,75.82z
		"/>
	<path class="st0" d="M78.73,145.86c0,1.59,0.02,3.18-0.01,4.77c-0.02,1.15-0.72,1.85-1.76,1.81c-0.99-0.04-1.63-0.7-1.64-1.81
		c-0.02-3.18-0.02-6.37,0-9.55c0.01-1.19,0.67-1.82,1.75-1.79c1.03,0.03,1.62,0.64,1.64,1.79
		C78.75,142.68,78.73,144.27,78.73,145.86z"/>
	<path class="st0" d="M8.76,75.82c1.52,0,3.03-0.02,4.55,0.01c1.18,0.02,1.86,0.68,1.84,1.72c-0.02,1.01-0.67,1.68-1.78,1.69
		c-3.15,0.03-6.3,0.03-9.46,0c-1.1-0.01-1.77-0.7-1.78-1.69c-0.01-1.05,0.66-1.7,1.84-1.72C5.57,75.8,7.17,75.82,8.76,75.82z"/>
	<path class="st0" d="M78.73,9.04c0,1.59,0.02,3.18-0.01,4.78c-0.02,1.17-0.68,1.86-1.72,1.85c-1.04-0.01-1.67-0.7-1.68-1.89
		c-0.02-3.1-0.02-6.21,0-9.31c0.01-1.13,0.73-1.88,1.72-1.86c1.01,0.02,1.67,0.74,1.68,1.9C78.75,6.01,78.73,7.53,78.73,9.04z"/>
	<path class="st10" d="M57.8,104.84c-0.87,1.76-1.81,3.48-3.24,4.87c-0.72-0.36-0.63-1.06-0.64-1.67c-0.04-2.11,0-4.23-0.02-6.35
		c-0.01-0.44,0.02-0.88-0.11-1.3c-0.06-0.49,0.1-0.93,0.33-1.35c0.77-1.37,1.55-2.74,2.29-4.12c0.17-0.31,0.31-0.9,0.92-0.48
		c0.44,0.85,0.39,1.77,0.41,2.68C57.79,99.69,57.67,102.27,57.8,104.84z"/>
	<path class="st9" d="M64.53,41.99c0.28,0.46,0.29,0.97,0.29,1.5c-0.01,2.9,0,5.8,0,8.7c0,0.48-0.04,0.96,0.24,1.38
		c-0.43,0.35-0.7-0.02-1-0.23c-1.32-1.74-2.2-3.73-3.33-5.58c-0.85-1.38-1.59-2.83-2.38-4.25c1.15,0.31,2.23,0.82,3.22,1.46
		c0.69,0.45,1.04,0.46,1.32-0.42C63.2,43.57,63.73,42.68,64.53,41.99z"/>
	<path class="st11" d="M62.18,85.19c0.27,0.43,0.25,0.91,0.25,1.39c0,2.55,0,5.1,0,7.65c0,0.47-0.1,0.98,0.45,1.26
		c-0.63,1.73-1.77,3.19-2.64,4.79c-0.91-0.15-0.79-0.89-0.8-1.49c-0.05-2.55,0-5.1-0.02-7.65c0-0.28,0.01-0.56-0.06-0.83
		c-0.11-0.55,0.16-1,0.39-1.46c0.52-1.03,1.14-2.01,1.68-3.03C61.59,85.54,61.71,85.14,62.18,85.19z"/>
	<path class="st12" d="M34.88,48.55c1.03-1.16,2.28-2.02,3.6-2.79c0.56,0.34,0.58,0.91,0.58,1.46c0.01,1.7,0.07,3.39-0.03,5.09
		c-0.39,1.3-2.71,4.07-3.67,4.4c-0.35-0.26-0.47-0.65-0.49-1.04C34.75,53.29,34.67,50.92,34.88,48.55z"/>
	<path class="st13" d="M66.45,89.02c-0.45-1.79-0.11-3.62-0.18-5.42c-0.02-0.59,0.45-0.55,0.85-0.55c1.39,0,2.78,0.01,4.17,0.01
		c0.56,1.85,0.61,3.69-0.01,5.54c-1.21,0.23-2.43,0.05-3.64,0.11C67.23,88.73,66.76,88.58,66.45,89.02z"/>
	<path class="st14" d="M59.54,89.98c0.26,0.43,0.25,0.91,0.25,1.39c0,2.55,0,5.1,0,7.65c0,0.47-0.1,0.98,0.45,1.26
		c-0.58,1.64-1.67,3.01-2.43,4.56c-0.68-0.23-0.38-0.8-0.4-1.22c-0.11-3.1,0.21-6.21-0.25-9.3C57.43,92.58,58.28,91.17,59.54,89.98z
		"/>
	<path class="st15" d="M38.74,52.71c-0.01-1.78-0.03-3.55-0.02-5.33c0-0.56-0.07-1.1-0.24-1.62c1.34-0.93,2.73-1.74,4.3-2.2
		c0.66,1.96,0.29,3.96,0.29,5.95c-0.08,0.42-0.35,0.7-0.68,0.94c-0.95,0.65-1.89,1.31-2.78,2.04
		C39.36,52.68,39.09,52.86,38.74,52.71z"/>
	<path class="st16" d="M85.89,39.92c0.7,0.32,1.48,0.52,1.98,1.17c0.14,4.13,0.03,8.26,0.06,12.39c-0.59,1.03-1.25,1.25-2.39,0.81
		c-0.37-0.62-0.25-1.31-0.26-1.98c-0.02-1.23,0.05-2.46-0.19-3.68c-0.06-0.52-0.05-1.04,0.03-1.56c0.33-1.81,0.06-3.64,0.16-5.46
		C85.33,40.99,85.18,40.29,85.89,39.92z"/>
	<path class="st17" d="M54.03,100.02c0.54,2.4,0.12,4.83,0.25,7.24c0.05,0.82-0.19,1.68,0.28,2.45c-0.84,1.12-1.93,1.94-3.13,2.64
		c-0.47-0.44-0.38-1.02-0.39-1.57c-0.03-1.79,0.06-3.58-0.18-5.35c0.38-1.8,1.64-3.15,2.42-4.74
		C53.43,100.38,53.57,100.01,54.03,100.02z"/>
	<path class="st18" d="M46.84,42.38c1.42-0.41,2.87-0.33,4.32-0.27c0.42,0.45,0.39,1.02,0.37,1.56c-0.07,1.36,0.23,2.75-0.23,4.09
		c-1.42,0.79-2.96,0.8-4.52,0.64c-0.35-0.25-0.48-0.63-0.5-1.03c-0.07-1.34-0.07-2.68,0-4.02C46.3,42.94,46.44,42.57,46.84,42.38z"
		/>
	<path class="st19" d="M89.96,83.07c0.07,0,0.14-0.01,0.21-0.02c1.1,0.79,2.38,3.28,2.23,4.36c-0.34,2-0.08,4.02-0.15,6.03
		c-0.03,0.91,0.02,1.82-0.02,2.73c-0.02,0.55-0.04,1.12-0.58,1.47c-0.8-1.29-1.58-2.6-2.19-4c-0.22-3.08-0.07-6.16-0.09-9.25
		C89.36,83.88,89.41,83.35,89.96,83.07z"/>
	<path class="st20" d="M71.28,88.6c0-1.85,0.01-3.69,0.01-5.54c1.52,0,3.03,0,4.55,0c0.57,1.85,0.61,3.69-0.01,5.54
		C74.31,88.78,72.8,88.77,71.28,88.6z"/>
	<path class="st21" d="M48.06,113.97c-0.89,0.5-1.85,0.67-2.86,0.7c-1.34,0.19-1.56,0.07-1.57-1.16c-0.02-1.47-0.18-2.95,0.13-4.41
		c0.28-0.58,0.84-0.66,1.38-0.79c0.66-0.15,1.28-0.4,1.92-0.6c0.4-0.13,0.84-0.34,1.17,0.15C48.47,109.91,48.74,111.96,48.06,113.97
		z"/>
	<path class="st22" d="M87.82,53.58c-0.31-0.23-0.25-0.56-0.25-0.88c0-3.55,0-7.1,0-10.65c0-0.35-0.07-0.73,0.31-0.97
		c0.9,0.64,1.69,1.35,2.05,2.44c0.35,2.95,0.07,5.92,0.18,8.88C89.7,53.49,88.8,53.62,87.82,53.58z"/>
	<path class="st23" d="M91.64,97.64c0.42-1.36,0.2-2.76,0.23-4.14c0.04-1.71,0.01-3.42,0.01-5.13c0-0.47-0.09-0.98,0.46-1.25
		c1.15,0.89,1.78,2.1,2.11,3.49c-0.54,3-0.12,6.04-0.27,9.05c-0.03,0.52,0.24,1.23-0.65,1.37C92.79,99.96,92.18,98.82,91.64,97.64z"
		/>
	<path class="st24" d="M93.52,101.03c0.51-0.31,0.37-0.81,0.39-1.27c0.09-2.81-0.14-5.62,0.13-8.42c0.02-0.24,0.01-0.48,0.26-0.62
		c1.09,1.19,2.32,2.32,2.17,4.16c-0.3,2.76-0.05,5.52-0.15,8.28c-0.02,0.65,0.12,1.38-0.64,1.77
		C94.86,103.68,94.13,102.38,93.52,101.03z"/>
	<path class="st25" d="M51.16,47.84c0-1.91,0-3.82,0-5.74c1.39-0.1,2.73,0.14,4.07,0.47c0.33,0.35,0.38,0.79,0.36,1.22
		c-0.06,1.54,0.22,3.1-0.2,4.62c-0.02,0.03-0.04,0.09-0.07,0.09C53.88,48.71,52.46,48.65,51.16,47.84z"/>
	<path class="st26" d="M46.84,42.38c-0.37,1.97-0.38,3.94,0.01,5.91c-1.19,0.94-2.54,1.44-4.05,1.54c-0.01-2.09-0.02-4.18-0.03-6.27
		C44.07,42.95,45.44,42.6,46.84,42.38z"/>
	<path class="st27" d="M99.76,110.65c-0.95-0.76-1.75-1.65-2.37-2.7c-0.28-3-0.1-6-0.1-9c0-0.48,0.12-0.94,0.51-1.28
		c0.18-0.11,0.42-0.18,0.54-0.02c0.99,1.2,1.96,2.42,1.96,4.09c-0.33,2.37-0.07,4.75-0.16,7.12
		C100.12,109.47,100.28,110.13,99.76,110.65z"/>
	<path class="st28" d="M69.16,45.45c-0.52-0.54-0.24-1.21-0.26-1.81c-0.05-1.39-0.01-2.77-0.01-4.16c1.33-0.51,2.71-0.21,4.07-0.23
		c0.41,0.42,0.39,0.95,0.36,1.46c-0.06,1.38,0.22,2.78-0.21,4.15c-0.32,0.44-0.82,0.46-1.28,0.43
		C70.93,45.22,70.07,45.62,69.16,45.45z"/>
	<path class="st29" d="M48.06,113.97c-0.01-2.11-0.02-4.22-0.03-6.33c0.86-1.09,1.88-1.98,3.11-2.63c0.49,2.43,0.17,4.89,0.29,7.34
		C50.46,113.21,49.23,113.53,48.06,113.97z"/>
	<path class="st12" d="M35.12,112.73c0-1.97,0-3.94,0-5.9c0-0.47-0.08-0.96,0.42-1.27c1.26,0.52,2.27,1.38,3.24,2.3
		c-0.5,0.82-0.37,1.74-0.4,2.64c-0.05,1.21,0.17,2.44-0.15,3.64C37.11,113.87,36.06,113.42,35.12,112.73z"/>
	<path class="st22" d="M89.96,83.07c-0.28,0.43-0.24,0.9-0.24,1.38c0,2.57,0,5.14,0,7.71c0,0.52,0.02,1.03-0.27,1.49
		c-0.91-1.39-1.7-2.85-2.4-4.35c0.22-1.69,0.08-3.39,0.13-5.08c0.01-0.41-0.12-0.89,0.38-1.15C88.36,83.06,89.16,83.07,89.96,83.07z
		"/>
	<path class="st30" d="M119.89,49.99c-0.38,0.36-0.22,0.82-0.23,1.25c-0.08,3.02,0.18,6.06-0.25,9.07c-0.17,0.02-0.33-0.03-0.4-0.19
		c-0.59-1.41-1.46-2.69-1.83-4.19c-0.1-2.14-0.06-4.28-0.03-6.41c0.01-0.59-0.09-1.33,0.83-1.44
		C118.74,48.59,119.36,49.25,119.89,49.99z"/>
	<path class="st31" d="M43.98,108.92c0,1.5,0.06,3-0.02,4.5c-0.05,0.98,0.26,1.4,1.24,1.26c-1.61,0.37-3.21,0.3-4.81-0.04
		c-0.17-2-0.36-3.99,0.15-5.98C41.73,108.16,42.86,108.47,43.98,108.92z"/>
	<path class="st32" d="M98.16,97.64c-0.54,0.37-0.54,0.93-0.54,1.5c0,2.47,0,4.95,0,7.42c0,0.48,0.04,0.96-0.23,1.39
		c-0.7-0.93-1.27-1.95-1.73-3.02c0.29-0.46,0.29-0.98,0.29-1.5c-0.01-2.54,0-5.09,0-7.63c0-0.47-0.09-0.98,0.46-1.25
		C97.36,95.36,98.18,96.27,98.16,97.64z"/>
	<path class="st33" d="M72.96,44.92c0-1.89,0-3.78,0-5.67c1.11-0.03,2.21-0.06,3.32-0.09c0,1.95,0,3.89,0.01,5.84
		C75.16,45.48,74.05,45.57,72.96,44.92z"/>
	<path class="st34" d="M117.98,48.07c-0.55,0.25-0.47,0.76-0.48,1.22c-0.01,2.32-0.01,4.65-0.02,6.97
		c-1.25-0.77-2.11-1.85-2.55-3.26c0.11-1.83-0.01-3.66,0.08-5.49c0.02-0.46-0.16-1.2,0.76-1.11
		C116.58,46.86,117.41,47.3,117.98,48.07z"/>
	<path class="st35" d="M55.24,48.5c0-1.97,0-3.95,0-5.92c0.14-0.01,0.28-0.02,0.41-0.04c1.49,2.55,2.98,5.09,4.46,7.64
		c0.09,0.16,0.09,0.37,0.14,0.56c-0.07,0.04-0.15,0.11-0.21,0.09C58.41,50.12,56.73,49.5,55.24,48.5z"/>
	<path class="st36" d="M107.92,114.62c-1.09-0.12-2.16-0.32-3.12-0.87c-0.58-1.97-0.55-3.93,0.03-5.89c0.91-0.4,2.16,0.05,2.98,1.09
		C107.8,110.84,107.72,112.74,107.92,114.62z"/>
	<path class="st37" d="M75.83,88.6c0-1.85,0.01-3.69,0.01-5.54c0.8,0,1.6,0,2.39,0c0.54,0.7,0.3,1.52,0.35,2.29
		c0.03,0.43,0,0.87,0.01,1.3c0.02,1.45,0.04,1.47,1.55,1.55c0.71-0.03,1.41-0.01,2.12,0c0.57-0.03,1.14-0.02,1.71,0
		c0.65-0.03,1.3-0.01,1.95,0.01c0.38,0.11,0.98-0.09,0.89,0.65c-1-0.33-2.04-0.12-3.06-0.16C81.12,88.63,78.47,88.83,75.83,88.6z"/>
	<path class="st38" d="M40.64,108.63c0,1.58-0.01,3.17-0.01,4.75c0,0.44,0.01,0.87-0.23,1.26c-0.76-0.01-1.46-0.25-2.17-0.49
		c-0.24-1.85-0.1-3.7-0.06-5.55c0.01-0.29,0.1-0.65,0.54-0.64C39.52,107.7,40.18,107.87,40.64,108.63z"/>
	<path class="st39" d="M99.76,110.65c0.01-2.7,0.01-5.4,0.03-8.09c0-0.39-0.21-0.92,0.44-1.07c1.07,0.77,1.72,1.77,1.71,3.14
		c-0.26,1.78-0.05,3.57-0.13,5.36c-0.03,0.66,0.06,1.38-0.6,1.84C100.63,111.56,100.15,111.15,99.76,110.65z"/>
	<path class="st7" d="M34.88,48.55c0.45,0.9,0.18,1.87,0.23,2.8c0.08,1.5-0.11,3,0.11,4.5c0.05,0.32,0.08,0.62,0.33,0.85
		c-0.09,1.22-0.48,2.29-1.43,3.11c-0.76,0.22-0.42-0.4-0.43-0.63c-0.03-1.75-0.02-3.5-0.01-5.25c0.01-1.31,0.02-2.61-0.23-3.9
		C33.84,49.45,34.29,48.93,34.88,48.55z"/>
	<path class="st40" d="M90.05,52.66c-0.33-0.19-0.32-0.52-0.32-0.84c0-2.59,0-5.17,0.01-7.76c0-0.18,0.12-0.36,0.19-0.54
		c0.32,0.35,0.62,0.74,0.7,1.22c0.13,0.73,0.51,0.66,1,0.39c0.46,0.44,0.37,1.01,0.38,1.55c0.03,1.58-0.04,3.15,0.07,4.73
		C91.69,52.53,91.21,52.82,90.05,52.66z"/>
	<path class="st41" d="M119.19,103.91c0.42,0.75,0.21,1.56,0.22,2.35c0.04,1.87,0.03,3.75,0.04,5.62c-0.51,0.61-1.3,0.76-1.93,1.17
		c-0.46-0.44-0.36-1.02-0.38-1.56c-0.04-1.54,0.06-3.09-0.11-4.62C117.4,105.63,118.06,104.59,119.19,103.91z"/>
	<path class="st42" d="M91.89,51.71c-0.51-1.18-0.18-2.41-0.24-3.62c-0.05-0.98-0.02-1.97-0.03-2.95c0.65-0.36,1.3-0.71,1.95-1.07
		c0.53,0.23,0.56,0.73,0.57,1.2c0.01,1.65,0.09,3.3-0.05,4.95C93.74,51.28,92.93,51.66,91.89,51.71z"/>
	<path class="st43" d="M105.85,42.29c0.81,0.03,1.59,0.16,2.33,0.51c-0.25,1.32-0.12,2.66-0.16,3.99c-0.02,0.67,0.01,1.34-0.26,1.97
		c-0.93,0.41-1.7-0.1-2.51-0.42c-0.34-1.85-0.02-3.71-0.06-5.56C105.2,42.43,105.43,42.17,105.85,42.29z"/>
	<path class="st34" d="M117.24,106.47c0.55,2.17,0.11,4.39,0.28,6.58c-0.65,0.49-1.41,0.69-2.17,0.93c-0.42-0.4-0.36-0.94-0.36-1.44
		c-0.01-1.42-0.01-2.83-0.03-4.24C115.36,107.23,116.2,106.72,117.24,106.47z"/>
	<path class="st44" d="M107.69,48.75c0-1.76,0-3.53,0-5.29c0-0.36,0.1-0.62,0.5-0.67c0.48,0.39,1.2,0.01,1.66,0.49
		c0.59,2.04,0.6,4.08-0.01,6.12C108.89,49.93,108.24,49.49,107.69,48.75z"/>
	<path class="st45" d="M112.1,44.19c0.66,0.25,1.3,0.53,1.84,1c0.21,1.84,0.08,3.69,0.08,5.54c0,0.35-0.07,0.71-0.34,0.98
		c-1.05,0.12-1.82-0.35-2.34-1.43c0.08-1.62,0-3.24,0.07-4.86C111.43,44.94,111.27,44.26,112.1,44.19z"/>
	<path class="st46" d="M101.21,111.83c0.51-2.07,0.13-4.18,0.26-6.26c0.03-0.42-0.27-0.99,0.42-1.2c0.9,0.59,1.76,1.21,1.76,2.45
		c-0.3,1.54-0.09,3.09-0.16,4.64c-0.02,0.54,0.09,1.13-0.37,1.57C102.43,112.71,101.78,112.33,101.21,111.83z"/>
	<path class="st47" d="M97.39,42.81c0.68-0.35,1.39-0.55,2.16-0.48c0.35,0.38,0.36,0.86,0.36,1.34c0,1.46,0.03,2.92,0.01,4.38
		c-0.53,0.87-1.36,0.83-2.21,0.73c-0.24-0.08-0.47-0.23-0.5-0.47C96.99,46.47,96.69,44.62,97.39,42.81z"/>
	<path class="st48" d="M85.89,39.92c-0.52,1.78-0.12,3.59-0.24,5.39c-0.04,0.62,0.1,1.27-0.26,1.84c-0.85-0.6-1.49-1.38-1.94-2.31
		c-0.17-1.47-0.11-2.93-0.05-4.4c0.02-0.5-0.02-1.2,0.88-1.01C84.87,39.42,85.43,39.52,85.89,39.92z"/>
	<path class="st44" d="M107.92,114.62c-0.11-0.11-0.32-0.21-0.33-0.33c-0.12-1.81-0.45-3.63,0.17-5.42c0.73-0.44,1.35-0.2,1.95,0.28
		c0.46,1.07,0.2,2.2,0.24,3.31c0.05,1.6,0.02,1.6,1.47,2.07c0.04,0.05,0.09,0.1,0.13,0.15
		C110.32,115.07,109.12,114.76,107.92,114.62z"/>
	<path class="st49" d="M112.1,44.19c-0.52,0.32-0.3,0.84-0.34,1.29c-0.14,1.67,0.28,3.37-0.25,5.02c-0.82,0-1.48-0.28-1.9-1.02
		c0.5-2.05,0.12-4.13,0.24-6.19C110.58,43.61,111.44,43.65,112.1,44.19z"/>
	<path class="st50" d="M93.81,50.51c0-1.73-0.01-3.46-0.01-5.19c0-0.43,0.05-0.87-0.22-1.25c0.69-0.31,1.36-0.7,2.14-0.77
		c0.42,0.41,0.35,0.95,0.35,1.45c0.01,1.42-0.02,2.85,0.14,4.26C95.81,50.16,94.8,50.31,93.81,50.51z"/>
	<path class="st51" d="M113.33,51.71c0.47-0.29,0.33-0.76,0.33-1.18c0.01-1.42,0-2.84,0.01-4.25c0-0.38-0.13-0.8,0.26-1.1
		c0.67,0.32,1.35,0.62,1.84,1.21c-0.57,0.13-0.42,0.59-0.42,0.96c-0.01,1.54-0.01,3.08,0,4.62c0,0.48,0.02,0.95-0.24,1.38
		C114.14,53.21,113.66,52.54,113.33,51.71z"/>
	<path class="st52" d="M78.01,45c0-1.95,0-3.89,0.01-5.84c0.71,0.03,1.42,0.06,2.13,0.09c0.38,0.38,0.39,0.87,0.36,1.34
		c-0.09,1.46,0.29,2.94-0.27,4.37C79.51,45.44,78.76,45.45,78.01,45z"/>
	<path class="st53" d="M105.85,42.29c-0.59,0.17-0.41,0.65-0.43,1.06c-0.07,1.59,0.11,3.19-0.15,4.78c-0.3,0.24-0.64,0.21-0.99,0.14
		c-0.39-0.14-0.87-0.15-1.1-0.59c-0.19-1.87-0.5-3.74,0.19-5.57C104.2,42.11,105.04,41.95,105.85,42.29z"/>
	<path class="st46" d="M103.37,42.11c0,1.9,0,3.8,0.01,5.69c-1.62,0.74-2.34,0.35-2.3-1.37c0.03-1.44-0.22-2.88,0.14-4.31
		C101.94,42.11,102.66,42.11,103.37,42.11z"/>
	<path class="st54" d="M103.12,113.02c0-1.74,0.01-3.49,0.01-5.23c0-0.47-0.09-0.97,0.43-1.27c0.71,0.08,1.34,0.28,1.51,1.11
		c-0.49,2.02-0.17,4.08-0.29,6.12C104.18,113.65,103.64,113.35,103.12,113.02z"/>
	<path class="st0" d="M101.22,42.12c0.21,1.44,0.14,2.89,0.09,4.34c-0.04,1.01,0.2,1.6,1.36,1.38c0.23-0.04,0.48-0.02,0.71-0.03
		c0.32,0.07,0.69-0.07,0.95,0.23c-1.48,0.68-2.98,0.58-4.48,0.07c-0.45-0.3-0.3-0.77-0.31-1.19c-0.01-1.53-0.01-3.06-0.01-4.59
		C100.09,42.15,100.65,42.07,101.22,42.12z"/>
	<path class="st55" d="M115.11,108.01c0.49,1.22,0.15,2.48,0.23,3.73c0.05,0.74,0.01,1.49,0.02,2.24c-0.53,0.26-1.08,0.45-1.68,0.44
		c-0.42-0.26-0.55-0.68-0.56-1.12c-0.03-1.46-0.17-2.93,0.09-4.39C113.67,108.24,114.24,107.81,115.11,108.01z"/>
	<path class="st56" d="M113.43,108.73c0.11,1.89-0.25,3.8,0.24,5.68c-0.69,0.29-1.4,0.35-2.13,0.28l-0.05-0.06
		c-0.65-1.75-0.35-3.54-0.18-5.32C111.87,108.59,112.58,108.41,113.43,108.73z"/>
	<path class="st57" d="M80.14,44.92c0-1.89,0-3.78,0-5.67c0.64,0,1.28,0,1.92,0c0.34,0.33,0.39,0.77,0.36,1.2
		c-0.09,1.51,0.3,3.05-0.28,4.53C81.46,45.4,80.79,45.47,80.14,44.92z"/>
	<path class="st58" d="M95.97,49.34c-0.47-2-0.19-4.03-0.26-6.05c0.51-0.33,1.06-0.54,1.68-0.49c0,1.58,0,3.17,0,4.75
		c0,0.42-0.12,0.92,0.52,1.01C97.49,49.38,96.76,49.45,95.97,49.34z"/>
	<path class="st16" d="M86.82,88.88c-0.17-0.48-0.61-0.28-0.94-0.37c-0.24-0.1-0.38-0.29-0.41-0.54c-0.21-1.46-0.22-2.91,0.02-4.36
		c0.04-0.25,0.18-0.43,0.41-0.55c0.56,0,1.12,0,1.68,0c-0.28,1.56-0.04,3.13-0.13,4.69c-0.03,0.54,0.1,1.11-0.38,1.54
		C86.98,89.15,86.9,89.01,86.82,88.88z"/>
	<path class="st59" d="M82.06,44.92c0-1.89,0-3.78,0-5.67c0.75-0.02,1.5-0.18,2.22,0.18c-0.64,0.08-0.54,0.58-0.54,1
		c0,1.59,0,3.17,0,4.76C83.11,45.51,82.56,45.36,82.06,44.92z"/>
	<path class="st60" d="M95.97,49.34c0.65-0.26,1.29-0.52,1.94-0.77c0.65-0.15,1.3-0.31,1.94-0.46c1.49-0.02,2.99-0.05,4.48-0.07
		c0.31,0.03,0.63,0.06,0.94,0.1c0.8,0.21,1.61,0.41,2.41,0.62c0.64,0.24,1.28,0.49,1.92,0.73c0.63,0.34,1.27,0.68,1.9,1.02
		c0.61,0.4,1.22,0.81,1.83,1.21c0.59,0.55,1.18,1.09,1.77,1.64c0.79,0.97,1.58,1.95,2.37,2.92c0.64,1.35,1.29,2.69,1.93,4.04
		c0.96,3.22,0.91,6.52,0.91,9.83c-0.02,8.97-0.03,17.93,0.01,26.9c0.01,2.37-0.14,4.69-1.14,6.87c-0.65,0.85-1.29,1.71-1.94,2.56
		c-0.71,0.51-1.42,1.03-2.13,1.54c-0.56,0.24-1.12,0.48-1.68,0.72c-0.64,0.15-1.28,0.29-1.92,0.44c-0.63,0.43-1.27,0.44-1.92,0.02
		c-0.61-0.1-1.23-0.21-1.84-0.31c-0.89-0.42-1.78-0.83-2.68-1.25c-0.5-0.37-1.01-0.74-1.51-1.11c-0.56-0.72-1.12-1.44-1.68-2.16
		c-0.46-1.01-0.98-1.99-1.65-2.88c-0.52-1.38-1.3-2.61-2.07-3.85c-0.43-1.12-1.1-2.1-1.76-3.09c-0.4-1.45-1.47-2.53-2.12-3.83
		c-0.41-1.33-1.22-2.44-1.95-3.59c-0.53-1.46-1.4-2.74-2.17-4.07c-0.33-0.45-0.81-0.22-1.21-0.22c-7.95-0.01-15.9,0.04-23.86-0.02
		c-1.29-0.01-2.13,0.27-2.53,1.53c-0.09,0.3-0.26,0.57-0.4,0.86c-0.96,1.55-1.87,3.13-2.63,4.79c-0.89,1.39-1.68,2.84-2.39,4.34
		c-1.14,1.85-2.2,3.74-3.13,5.7c-0.96,1.66-1.93,3.33-2.89,4.99c-0.94,0.99-1.95,1.9-3.11,2.63c-1.29,0.62-2.64,1.03-4.05,1.27
		c-1.13,0.1-2.23-0.19-3.34-0.29c-0.64-0.22-1.29-0.44-1.93-0.67c-1.13-0.7-2.22-1.46-3.17-2.39c-1.27-1.64-2.2-3.42-2.38-5.53
		c-0.1-0.27-0.07-0.55-0.07-0.83c0-11.41,0-22.83,0-34.24c0-0.28-0.03-0.56,0.07-0.83c0.19-1.47,0.59-2.9,0.97-4.33
		c0.48-1.04,0.96-2.08,1.43-3.11c1.06-1.33,2.12-2.66,3.18-3.98c1.34-0.98,2.62-2.05,4.06-2.89c1.35-0.51,2.7-1.03,4.05-1.54
		c1.44-0.15,2.87-0.29,4.31-0.44c1.36,0.22,2.72,0.44,4.07,0.66c1.81,0.44,3.35,1.47,5.01,2.25c0.31,0.41,0.66,0.8,0.91,1.24
		c4.17,7.2,8.32,14.4,12.5,21.59c0.35,0.59,0.32,0.98-0.07,1.57c-1.38,2.1-0.62,4.88,1.57,6.05c2.24,1.2,5.02,0.32,6.12-1.93
		c1.08-2.22,0.05-4.93-2.33-5.8c-0.8-0.29-0.98-0.64-0.97-1.42c0.04-5.34,0.04-10.68,0.04-16.02c0.55-0.66,1.38-0.24,2.03-0.52
		c0.79-0.13,1.6-0.21,2.37-0.45c0.4-0.1,0.81-0.17,1.19-0.33c0.67-0.19,1.31-0.52,2.05-0.4c0.81,0.01,1.52-0.27,2.16-0.75
		c0.74-0.31,1.49-0.61,2.23-0.92c0.69-0.18,1.32-0.45,1.84-0.96c0.63-0.41,1.38-0.63,1.92-1.2C94.42,49.93,95.31,49.83,95.97,49.34z
		"/>
	<path class="st60" d="M64.06,53.34c0.33,0.08,0.66,0.15,1,0.23c1.25,0.81,2.66,1.22,4.07,1.62c0.91-0.29,1.69,0.25,2.54,0.37
		c0.51,0.07,0.99,0.3,1.51,0.29c1.04,0.12,2.14-0.3,3.12,0.37c0,5.35,0,10.69-0.01,16.04c0,0.4,0.22,0.94-0.42,1.08
		c-0.57,0.12-0.59-0.44-0.77-0.74c-3.58-6.16-7.15-12.33-10.71-18.51C64.25,53.86,64.17,53.59,64.06,53.34z"/>
	<path class="st60" d="M72.96,44.92c1.11,0.03,2.22,0.05,3.33,0.08c0.01,1.74,0.01,3.48,0.02,5.22c-0.77,0.57-1.63,0.34-2.47,0.27
		c-1.15-0.22-2.32-0.34-3.42-0.79c-0.39-0.16-0.86-0.19-1.04-0.67c-0.49-0.5-1.77-0.26-1.39-1.58c0.22-0.79,0.65-1.42,1.19-2.01
		C70.35,44.71,71.69,45.06,72.96,44.92z"/>
	<path class="st60" d="M82.06,44.92c0.56,0.09,1.12,0.18,1.68,0.27c0.79,0.46,1.29,1.15,1.66,1.96c0.01,0.47,0.01,0.95,0.02,1.42
		c-0.39,0.6-1.08,0.67-1.65,0.96c-0.7,0.19-1.35,0.55-2.06,0.72c-0.71,0.05-1.42,0.16-2.12,0.28c-0.56,0.03-1.12,0.1-1.59-0.33
		c0-1.74,0.01-3.48,0.01-5.22c0.71-0.03,1.42-0.05,2.13-0.08C80.78,44.92,81.42,44.92,82.06,44.92z"/>
	<path class="st20" d="M73.77,50.2c0.85-0.06,1.69,0.23,2.54,0.02c0,2,0,4.01,0,6.01c-1.1-0.27-2.24,0.2-3.33-0.21
		c-0.39-0.36-0.37-0.85-0.38-1.32c-0.01-1.18-0.05-2.36,0.02-3.54C72.65,50.47,72.85,49.89,73.77,50.2z"/>
	<path class="st61" d="M78,50.21c0.56,0.01,1.11,0.02,1.67,0.03c0.42,0.46,0.35,1.04,0.36,1.59c0.03,1.31-0.08,2.63,0.19,3.94
		c-0.7,0.35-1.46,0.13-2.19,0.27C78.02,54.1,78.01,52.16,78,50.21z"/>
	<path class="st1" d="M33.16,64.14c0,10.09-0.01,20.19-0.01,30.28c0,1.87,0.01,3.75,0.01,5.62c-0.33-0.38-0.19-0.84-0.19-1.26
		c-0.01-11.12-0.01-22.25,0-33.37C32.97,64.98,32.83,64.52,33.16,64.14z"/>
	<path class="st62" d="M73.77,50.2c-0.71-0.04-0.83,0.37-0.82,0.98c0.03,1.61,0.01,3.23,0.02,4.85c-1.35,0.05-2.58-0.46-3.84-0.83
		c0-1.69-0.01-3.37,0-5.06c0-0.38-0.13-0.8,0.23-1.1C70.8,49.55,72.26,49.96,73.77,50.2z"/>
	<path class="st57" d="M82.29,88.51c-0.71,0-1.43,0-2.14,0c-0.62-1.82-0.6-3.64,0-5.45c0.72,0,1.43,0,2.15,0
		C82.55,84.88,82.55,86.7,82.29,88.51z"/>
	<path class="st52" d="M80.15,83.06c0,1.82,0,3.64,0,5.45c-0.24,0.01-0.48,0.01-0.72,0.04c-0.92,0.13-1.28-0.2-1.23-1.18
		c0.08-1.43,0.02-2.87,0.02-4.31C78.87,83.06,79.51,83.06,80.15,83.06z"/>
	<path class="st63" d="M82.29,88.51c-0.17-1.82-0.19-3.63,0-5.45c0.56,0,1.12,0,1.68,0c0.6,1.81,0.6,3.63,0,5.45
		C83.42,88.51,82.86,88.51,82.29,88.51z"/>
	<path class="st64" d="M83.98,88.51c0-1.82,0-3.63,0-5.45c0.64,0,1.27,0,1.91,0c-0.37,1.82-0.36,3.63-0.01,5.45
		C85.25,88.51,84.61,88.51,83.98,88.51z"/>
	<path class="st65" d="M83.73,49.29c0.56-0.24,1.13-0.48,1.69-0.73c0.47,1.91,0.12,3.85,0.24,5.77c-0.58,0.4-1.28,0.47-1.93,0.66
		c-0.03-0.02-0.08-0.03-0.1-0.06C82.85,53.97,82.92,50.23,83.73,49.29z"/>
	<path class="st49" d="M109.6,109.19c0.64-0.01,1.28-0.01,1.92-0.02c-0.01,1.82-0.02,3.64-0.02,5.46c-0.28,0.01-0.56,0-0.83,0.03
		c-0.84,0.11-1.11-0.25-1.08-1.07C109.64,112.13,109.6,110.66,109.6,109.19z"/>
	<path class="st66" d="M46.63,79.17c-1.38-0.4-2.6-1.06-3.61-2.1c-0.13-0.42-0.15-0.85-0.15-1.29c0.02-4.8,0.01-9.6,0.01-14.4
		c0-0.72-0.01-1.43,0.38-2.08c0.75-0.76,1.65-1.27,2.65-1.62c0.64,0.43,0.55,1.1,0.58,1.73c0.08,1.43-0.15,2.87,0.17,4.28
		c0.17,0.6-0.27,0.96-0.54,1.38c-1.61,2.44-1.42,4.91,0.54,7.11c0.26,0.29,0.6,0.54,0.57,1c-0.01,1.51,0.01,3.02-0.02,4.53
		C47.19,78.26,47.25,78.85,46.63,79.17z"/>
	<path class="st67" d="M43.25,59.3c0,5.5,0.01,11,0.01,16.5c0,0.44-0.01,0.88-0.25,1.27C37.47,72.63,37.59,63.67,43.25,59.3z"/>
	<path class="st68" d="M58.56,60.05c4.76,4.03,4.8,12.37-0.02,16.52c-0.44,0.22-0.57-0.11-0.68-0.41c-0.15-0.42-0.13-0.86-0.13-1.3
		c0-4.38-0.01-8.75,0-13.13c0-0.4-0.01-0.8,0.11-1.18C57.94,60.2,58.06,59.83,58.56,60.05z"/>
	<path class="st69" d="M58.56,60.05c-0.59,0.11-0.45,0.58-0.45,0.95c-0.01,4.87-0.01,9.74,0,14.61c0,0.37-0.16,0.84,0.42,0.97
		c-0.48,0.88-1.42,1.15-2.18,1.66c-0.89-0.18-0.72-0.92-0.75-1.51c-0.08-1.81,0.09-3.63-0.11-5.44c-0.06-0.4,0.04-0.79,0.16-1.17
		c0.56-1.77,0.41-3.44-0.67-5c-0.25-0.36-0.43-0.76-0.37-1.23c0.03-1.63-0.03-3.25,0.04-4.87c0.02-0.51-0.13-1.31,0.87-1.14
		C56.69,58.38,57.82,58.94,58.56,60.05z"/>
	<path class="st70" d="M110.29,77.05c-0.62,0.95-1.65,1.27-2.6,1.71c-0.45-0.44-0.36-1.01-0.37-1.55c-0.04-1.65,0.06-3.3-0.12-4.94
		c0-0.49,0.22-0.91,0.43-1.34c0.84-1.74,0.97-3.47,0.02-5.22c-0.23-0.42-0.43-0.85-0.4-1.35c0.14-1.74,0-3.48,0.1-5.21
		c0.03-0.6,0.02-1.4,1.06-1.03c0.66,0.24,1.21,0.64,1.69,1.15c0.21,0.37,0.13,0.77,0.14,1.17
		C110.27,65.98,110.16,71.52,110.29,77.05z"/>
	<path class="st24" d="M93.54,61.44c0.53-0.95,1.3-1.67,2.19-2.28c0.64,0.3,0.59,0.9,0.6,1.44c0.03,5.21,0.02,10.42,0.01,15.62
		c0,0.47,0.01,0.97-0.38,1.33c-1-0.6-1.78-1.42-2.39-2.4c-0.36-0.76-0.1-1.56-0.12-2.34c-0.09-3.57,0.08-7.13-0.08-10.7
		C93.33,61.87,93.43,61.65,93.54,61.44z"/>
	<path class="st32" d="M95.94,77.56c0-5.71,0-11.42,0.01-17.13c0-0.44,0.05-0.88-0.22-1.27c0.49-0.44,0.99-0.88,1.65-1.06
		c0.54,0.41,0.38,1.01,0.39,1.55c0.06,1.9-0.18,3.82,0.27,5.71c-0.93,2.12-0.51,4.24,0.01,6.35c-0.13,1.69-0.02,3.38-0.07,5.07
		c-0.02,0.62,0.02,1.28-0.59,1.7C96.83,78.3,96.34,78,95.94,77.56z"/>
	<path class="st71" d="M110.29,77.05c-0.48-0.16-0.33-0.58-0.34-0.9c-0.01-5.28-0.01-10.55,0-15.83c0-0.35,0.09-0.7,0.14-1.05
		c0.88,0.57,1.58,1.32,2.11,2.21c-0.16,4.55-0.1,9.09-0.04,13.64C111.73,75.95,111.08,76.57,110.29,77.05z"/>
	<path class="st56" d="M112.17,75.13c-0.41-0.24-0.42-0.63-0.42-1.04c0-3.89,0-7.78,0.01-11.67c0-0.37-0.14-0.84,0.45-0.94
		C115.23,65.4,115.21,70.88,112.17,75.13z"/>
	<path class="st72" d="M93.54,61.44c0.23,4.57,0.21,9.15,0.01,13.72C90.47,71.29,90.46,65.25,93.54,61.44z"/>
	<path class="st18" d="M46.63,79.17c0.46-1.06,0.12-2.19,0.23-3.27c0.1-0.97-0.23-1.96,0.21-2.9c1.27,0.21,2.51,0.49,3.56,1.31
		c0.3,0.97,0.21,1.97,0.15,2.94c-0.08,1.18,0.16,2.08,1.39,2.47C50.25,80.22,48.43,79.84,46.63,79.17z"/>
	<path class="st17" d="M55.52,57.87c-0.65,0.09-0.52,0.6-0.52,1.01c-0.01,1.39,0,2.78-0.01,4.17c0,0.38,0.12,0.81-0.3,1.08
		c-1.18-0.57-2.59-0.75-3.35-2.02c-0.14-1.41-0.09-2.82-0.04-4.23c0.03-0.68,0.2-1.3,1.13-0.98C53.56,56.92,54.58,57.26,55.52,57.87
		z"/>
	<path class="st73" d="M52.17,79.71c-1.72-0.05-1.72-0.05-1.72-1.83c0-1.23,0-2.46,0-3.7c1.03-0.54,2.03-1.2,3.29-0.81
		c0.33,0.96,0.15,1.95,0.18,2.93c0.02,0.98-0.01,1.97,0.19,2.94C53.5,79.57,52.86,79.75,52.17,79.71z"/>
	<path class="st74" d="M46.58,63.88c-0.64-0.14-0.42-0.66-0.44-1.05c-0.11-1.71,0.23-3.45-0.24-5.14c1.02-0.63,2.17-0.82,3.33-0.93
		c-0.24,1.9,0.03,3.82-0.22,5.72C48.47,63.39,47.57,63.72,46.58,63.88z"/>
	<path class="st75" d="M48.77,62.67c0-1.55,0.01-3.11-0.01-4.66c0-0.49-0.02-0.96,0.47-1.26c1.07-0.08,2.15-0.24,3.2,0.16
		c-0.72-0.04-0.81,0.39-0.8,0.98c0.02,1.53,0,3.06,0,4.6C50.7,62.92,49.75,62.95,48.77,62.67z"/>
	<path class="st76" d="M54.1,79.24c-0.63-0.09-0.54-0.57-0.54-0.99c0-1.65,0-3.3,0-4.96c0.47-0.98,1.16-1.75,2.15-2.24
		c0.52,1.91,0.12,3.86,0.25,5.78c0.03,0.49-0.16,1.06,0.4,1.4C55.73,78.84,54.93,79.09,54.1,79.24z"/>
	<path class="st43" d="M107.42,71.96c0.55,2.25,0.13,4.54,0.27,6.81c-0.63,0.44-1.35,0.64-2.1,0.72c-0.64,0.02-0.63-0.51-0.64-0.88
		c-0.04-1.65-0.15-3.3,0.02-4.95C105.72,72.99,106.44,72.29,107.42,71.96z"/>
	<path class="st43" d="M108.41,58.13c-0.72-0.06-0.73,0.41-0.73,0.93c0.01,1.4,0,2.79,0.01,4.19c0,0.48-0.01,0.96-0.26,1.39
		c-1.06-0.32-1.82-0.97-2.2-2.03c-0.12-1.39-0.08-2.78-0.04-4.17c0.02-0.56-0.03-1.26,0.85-1.29
		C106.91,57.29,107.68,57.65,108.41,58.13z"/>
	<path class="st77" d="M97.86,65.08c-0.42-0.45-0.31-1-0.34-1.54c-0.09-1.81,0.15-3.64-0.14-5.45c0.65-0.47,1.38-0.75,2.17-0.89
		c0.42,0.4,0.35,0.94,0.35,1.43c0.02,1.41,0.01,2.82,0.02,4.22C99.74,64.08,98.88,64.66,97.86,65.08z"/>
	<path class="st47" d="M97.39,78.48c0.49-1.84,0.12-3.72,0.24-5.58c0.03-0.46-0.19-0.97,0.25-1.35c1.06,0.38,1.91,0.97,2.18,2.16
		c-0.34,1.47-0.11,2.97-0.17,4.45c-0.02,0.43,0.1,0.86-0.11,1.27C98.92,79.26,98.11,78.98,97.39,78.48z"/>
	<path class="st78" d="M101.93,56.74c0.64-0.1,1.28-0.11,1.92-0.01c0.33,1.76,0.11,3.54,0.08,5.31c0,0.34-0.28,0.56-0.62,0.65
		c-0.61,0.11-1.22,0.16-1.8-0.14c-0.37-0.32-0.4-0.77-0.41-1.2c-0.03-1.11-0.03-2.23,0-3.35C101.12,57.42,101.21,56.87,101.93,56.74
		z"/>
	<path class="st79" d="M80.21,55.77c-0.63-0.09-0.55-0.57-0.55-1c0-1.51,0-3.02,0-4.52c0.7-0.25,1.42-0.3,2.16-0.24
		c0.53,0.61,0.31,1.35,0.35,2.04c0.06,1.09-0.17,2.21,0.42,3.24C81.84,55.64,81.05,55.8,80.21,55.77z"/>
	<path class="st46" d="M104.41,79.73c-0.57,0.29-1.17,0.19-1.76,0.16c-0.47-0.2-0.99,0.06-1.45-0.17l0.01,0.01
		c-0.64-1.65-0.4-3.34-0.16-5.02c0.07-0.5,0.52-0.78,1.04-0.83c0.47-0.06,0.92-0.04,1.32,0.24c0.61,1.15,0.27,2.39,0.31,3.58
		C103.75,78.46,103.82,79.17,104.41,79.73z"/>
	<path class="st0" d="M101.93,56.74c-0.15,0.18-0.43,0.35-0.43,0.53c-0.02,1.65,0.01,3.3,0.04,4.96c0,0.09,0.15,0.17,0.23,0.26
		c-0.46,0.72-1.19,0.72-1.91,0.71c-0.47-0.3-0.31-0.78-0.31-1.2c-0.02-1.59-0.01-3.19-0.01-4.78
		C100.3,56.87,101.1,56.74,101.93,56.74z"/>
	<path class="st80" d="M103.61,62.44c0.29-1.23,0.03-2.49,0.14-3.73c0.06-0.66,0.07-1.32,0.1-1.99c0.76,0.01,1.49,0.13,2.19,0.43
		c-0.57,0.24-0.51,0.74-0.51,1.22c-0.01,1.55-0.03,3.11-0.04,4.66C104.75,63.19,104.09,63.13,103.61,62.44z"/>
	<path class="st53" d="M104.41,79.73c-0.84,0.07-1.08-0.33-1.05-1.14c0.06-1.47,0.02-2.95,0.02-4.43c0.44-0.59,0.99-0.77,1.68-0.44
		c0.28,1.42,0.04,2.85,0.12,4.27c0.03,0.53-0.09,1.1,0.42,1.5C105.24,79.77,104.82,79.72,104.41,79.73z"/>
	<path class="st0" d="M102.23,74.16c-0.88,0-1.01,0.6-1.01,1.29c-0.01,1.43-0.01,2.85-0.02,4.28c-0.5,0.03-0.99,0-1.42-0.29
		c-0.48-1.88-0.17-3.78-0.18-5.67c0-0.2,0.26-0.27,0.46-0.31C100.92,73.26,101.68,73.4,102.23,74.16z"/>
	<path class="st59" d="M82.59,55.28c-0.63,0.03-0.79-0.31-0.78-0.89c0.03-1.46,0.01-2.92,0.01-4.38c0.59-0.37,1.24-0.58,1.91-0.71
		c-0.38,1.9-0.39,3.8,0,5.71C83.38,55.22,83,55.29,82.59,55.28z"/>
	<path class="st0" d="M101.19,79.71c0.49,0.03,1.01-0.18,1.45,0.17C102.15,79.9,101.65,79.97,101.19,79.71z"/>
	<path class="st60" d="M55.71,71.05c-0.6,0.86-1.33,1.59-2.15,2.24c-0.99,0.46-2.03,0.76-3.12,0.89c-1.19-0.23-2.35-0.51-3.38-1.19
		c-2.98-2.8-3.12-5.35-0.48-9.11c0.73-0.4,1.46-0.81,2.19-1.21c0.94-0.23,1.9-0.24,2.86-0.18c1.14,0.33,2.16,0.88,3.06,1.65
		C56.46,66.23,56.76,68.54,55.71,71.05z"/>
	<path class="st60" d="M102.23,74.16c-0.73-0.24-1.45-0.47-2.18-0.71c-0.73-0.63-1.45-1.27-2.18-1.9c-1-2.15-1.1-4.31-0.02-6.47
		c0.67-0.63,1.33-1.26,2-1.89c0.56-0.44,1.32-0.36,1.91-0.71c0.61-0.01,1.23-0.02,1.84-0.04c0.62,0.2,1.25,0.39,1.87,0.59
		c0.75,0.41,1.31,1.05,1.94,1.61c1.67,2.44,1.6,4.88-0.01,7.31c-0.72,0.68-1.48,1.3-2.37,1.76c-0.56,0.15-1.12,0.3-1.68,0.44
		C102.99,74.16,102.61,74.16,102.23,74.16z"/>
</g>
</svg>
