<?xml version="1.0" encoding="utf-8"?>
<!-- Generator: Adobe Illustrator 25.0.1, SVG Export Plug-In . SVG Version: 6.00 Build 0)  -->
<svg version="1.1" id="Calque_1" xmlns="http://www.w3.org/2000/svg" xmlns:xlink="http://www.w3.org/1999/xlink" x="0px" y="0px"
	 viewBox="0 0 512 512" enable-background="new 0 0 512 512" xml:space="preserve">
<g>
	<path fill="#7F62A7" d="M103.9,343.2c-0.1,8.3,3.4,19.3,4.2,21.4l0.7,2l1.2,1.7c12.8,17.2,27.3,20.8,37.2,20.8
		c20,0,34.9-14.2,36.5-15.8l1.3-1.3l0.9-1.6l38-68.2l32.1-0.5l32.1,0.5l38,68.2l0.9,1.7l1.3,1.3c1.6,1.6,16.6,15.8,36.5,15.8
		c9.9,0,24.4-3.6,37.2-20.8l1.2-1.7l0.7-2c0.7-2.1,4.3-13.1,4.2-21.6l-0.9-121l0-1.2l-0.2-1.2c-3.8-19.7-22-56.9-64.3-56.9
		c-7,0-14.3,1.1-22,3.1c-7.8-12.4-21.7-20.7-37.4-20.7h-60.3c-15.3,0-28.7,7.8-36.7,19.5c-5.9-1.2-11.5-1.9-17-1.9h0
		c-42.3,0-60.6,37.2-64.3,56.9l-0.2,1.2l0,1.2 M223.1,158.4h60.3c9.8,0,18.6,4.7,24.3,11.9c-1.1,0.4-2.2,0.9-3.3,1.3l-1.4,0.6
		l-1.2,0.9c-0.2,0.1-21.6,15.3-45.7,15.4c-24-0.1-45.4-15.3-45.6-15.4l-1.2-0.9l-1.4-0.6c-2.6-1.1-5.2-2.1-7.7-3
		C205.8,162.3,214,158.4,223.1,158.4z M118,222.2c0,0,8.8-46.2,51.4-46.2c3.5,0,7.2,0.3,11.2,1c4,0.7,8.3,1.7,12.8,3.2
		c3,1,6.1,2.1,9.3,3.5c0,0,24.5,17.9,53.4,17.9c28.9-0.1,53.4-17.9,53.4-17.9c1.3-0.6,2.7-1.1,4-1.6c4.4-1.7,8.6-3,12.6-4
		c6.1-1.5,11.6-2.2,16.7-2.2c42.5,0,51.4,46.2,51.4,46.2l0.9,121.1c0.1,6.6-3.5,17.1-3.5,17.1c-8.7,11.7-18.1,15.5-26.6,15.5
		c-15.1,0-27.3-12-27.3-12l-41.7-74.8l-40-0.7l-40,0.7l-41.7,74.8c0,0-12.1,12-27.3,12c-8.5,0-17.9-3.8-26.6-15.5
		c0,0-3.6-10.5-3.5-17.1"/>
	<g>
		<circle fill="#FFFFFF" cx="172.3" cy="240.7" r="26.4"/>
		<path fill="#7F62A7" d="M172.3,214.3c14.6,0,26.4,11.8,26.4,26.4c0,14.6-11.8,26.4-26.4,26.4c-14.6,0-26.4-11.8-26.4-26.4
			C145.9,226.2,157.8,214.3,172.3,214.3 M172.3,201.1c-21.8,0-39.6,17.8-39.6,39.6c0,21.8,17.8,39.6,39.6,39.6s39.6-17.8,39.6-39.6
			C211.9,218.9,194.2,201.1,172.3,201.1L172.3,201.1z"/>
	</g>
	<g>
		<path fill="#FFFFFF" d="M362.4,237.4h-16.3V221c0-1.9-1.5-3.4-3.4-3.4h0c-1.9,0-3.4,1.5-3.4,3.4v16.3h-16.3
			c-1.9,0-3.4,1.5-3.4,3.4s1.5,3.4,3.4,3.4h16.3v16.3c0,1.9,1.5,3.4,3.4,3.4h0c1.9,0,3.4-1.5,3.4-3.4v-16.3h16.3
			c1.9,0,3.4-1.5,3.4-3.4S364.3,237.4,362.4,237.4z"/>
		<path fill="#7F62A7" d="M342.7,217.7c1.9,0,3.4,1.5,3.4,3.4v16.3h16.3c1.9,0,3.4,1.5,3.4,3.4s-1.5,3.4-3.4,3.4h-16.3v16.3
			c0,1.9-1.5,3.4-3.4,3.4h0c-1.9,0-3.4-1.5-3.4-3.4v-16.3h-16.3c-1.9,0-3.4-1.5-3.4-3.4s1.5-3.4,3.4-3.4h16.3V221
			C339.4,219.2,340.9,217.7,342.7,217.7L342.7,217.7 M342.7,207.8c-7.3,0-13.3,6-13.3,13.3v6.4h-6.4c-7.3,0-13.3,6-13.3,13.3
			c0,7.3,6,13.3,13.3,13.3h6.4v6.4c0,7.3,6,13.3,13.3,13.3c7.3,0,13.3-6,13.3-13.3V254h6.4c7.3,0,13.3-6,13.3-13.3
			c0-7.3-6-13.3-13.3-13.3H356V221C356,213.7,350.1,207.8,342.7,207.8L342.7,207.8z"/>
	</g>
	<g>
		<path fill="#FFFFFF" d="M253.6,129c0.1-1.9,0.9-3.2,3.1-3.1c2,0.1,2.6,1.4,2.7,3.1c1.5,2.1,1.1,4.5,1.1,6.8
			c0,4.1,0.1,8.1-0.1,12.2c0.1,5.8,0.2,11.6,0,17.4c0.1,6.1,0.1,12.2,0,18.2c-0.3,17.6,0,35.3-0.1,52.9c0,2.6,1,4,3.3,5.2
			c6.6,3.4,10.1,9.9,8.9,16.1c-1.4,7.1-6.5,12-14.2,12.8c-5.4,0.6-10.2-1.3-13.6-5.8c-3.7-4.9-4.5-10.5-1.6-16
			c1.5-2.9,1.3-5.1-0.2-7.7c-13.3-22.7-26.4-45.6-39.6-68.3c-1-1.7-2.2-3.3-3.2-5c-3.9-8.2-8.9-15.7-13.2-23.6
			c-0.7-1.3-1.5-2.5-1.4-4c-7.3-12.6-14.5-25.3-21.8-37.9c-0.6-1-1.2-2-1.7-3.1c-0.6-1.6,0-2.9,1.4-3.7c1.4-0.8,2.6-0.2,3.4,1
			c0.7,1,1.3,2,1.9,3c7.7,13.3,15.4,26.6,23.1,39.9c0.8,1.4,1.7,2.7,2.5,4c4.7,5.1,7.2,11.6,10.8,17.3c3,4.8,5.5,9.9,8.5,14.6
			c0.2,0.3,0.4,0.7,0.6,1c12.3,21.2,24.4,42.4,37.4,63.4c1.2-6.1,0.8-12.1,0.8-18.1c0.1-6.2,0-12.4,0-18.6c0-6.2,0.1-12.4-0.1-18.6
			c-0.1-6.3-0.1-12.7,0-19c-0.1-5.8-0.1-11.6,0-17.4c-0.2-4.9-0.1-9.7-0.1-14.6C252.5,131.9,252.6,130.4,253.6,129z"/>
		<path fill="#FFFFFF" d="M361.1,430.8c2.4,0.2,3.9,1.4,4.9,3.2c5.3,9.4,10.6,18.8,15.8,28.2c1.7,3.1,0.7,6.2-2,7.8
			c-2.8,1.7-5.9,1-7.7-2.2c-5.4-9.5-10.8-19-16-28.5C353.9,435.4,356.9,430.7,361.1,430.8z"/>
		<path fill="#FFFFFF" d="M465.8,129.1c2.7,0.2,4.3,1.8,5.1,4.2c0.9,2.6,0,4.7-2.2,6.1c-3.5,2.3-7.2,4.4-10.8,6.5
			c-5.4,3.2-10.8,6.5-16.2,9.7c-3.9,2.3-7,1.8-8.9-1.3c-1.9-3.1-1-6.2,2.9-8.5c8.8-5.2,17.6-10.4,26.5-15.6
			C463.3,129.7,464.4,129,465.8,129.1z"/>
		<path fill="#FFFFFF" d="M158,436.2c0.1,2.6-0.6,3.9-1.3,5.1c-5.3,8.6-10.6,17.3-15.9,25.9c-2.5,4-5.2,4.7-8.6,2.6
			c-3.1-1.9-3.5-4.6-1.1-8.5c5.4-8.9,10.9-17.7,16.3-26.5c1.7-2.7,4-3.3,6.8-2.4C156.5,433,157.9,434.7,158,436.2z"/>
		<path fill="#FFFFFF" d="M46.8,382.4c-3.3-0.1-4.8-1.8-5.6-4.2c-0.8-2.6,0.1-4.7,2.3-6.1c4.6-2.8,9.2-5.6,13.8-8.3
			c4.7-2.8,9.5-5.7,14.2-8.5c3.2-1.9,6-1.2,7.7,1.7c1.7,3,1.1,6-1.9,7.8c-9.2,5.6-18.5,11.1-27.7,16.6
			C48.7,382,47.6,382.5,46.8,382.4z"/>
		<path fill="#FFFFFF" d="M74.6,156.2c-1.1,0.1-2.2-0.5-3.4-1.1c-8.9-5-17.9-10-26.8-15c-3.5-2-4.4-4.3-2.8-7.4
			c1.6-3.2,4.6-4.4,7.9-2.6c9.5,5.1,18.9,10.4,28.3,15.6c2.6,1.4,3.4,3.7,2.6,6.3C79.7,154.7,77.8,156.2,74.6,156.2z"/>
		<path fill="#FFFFFF" d="M362.5,80.3c-4.8-0.1-7.7-4-5.9-7.7c5.1-9.9,10.4-19.7,15.8-29.5c1.5-2.7,4.2-3.2,6.8-1.7
			c2.6,1.5,4.5,3.9,2.9,6.9c-5.2,10-10.6,19.9-16,29.9C365.3,79.6,363.8,80.5,362.5,80.3z"/>
		<path fill="#FFFFFF" d="M437.6,355.1c1.7,0.1,2.9,0.6,4,1.2c8.6,5,17.3,10,25.9,15c3.7,2.2,4.6,5,2.8,8.2c-1.8,3-4.6,3.7-8.2,1.7
			c-9-5.1-18-10.3-27-15.4c-2.6-1.5-3.3-3.6-2.6-6.3C433.3,356.8,435.2,355.4,437.6,355.1z"/>
		<path fill="#FFFFFF" d="M156.5,72.5c-0.3,3.7-1.7,5.7-4.1,6.5c-2.7,1-5,0.1-6.5-2.4c-2.8-4.6-5.4-9.3-8-14
			c-2.5-4.5-5.1-8.9-7.6-13.4c-1.7-3.2-0.9-6.1,2-7.8c2.9-1.7,5.9-1.1,7.7,2.1c5.2,9,10.3,18,15.4,27.1
			C156,71.6,156.5,72.5,156.5,72.5z"/>
		<path fill="#FFFFFF" d="M482,250.1c5.1,0,10.3-0.1,15.4,0c3.9,0.1,6.2,2.3,6.1,5.7c-0.1,3.4-2.3,5.6-6.3,5.6
			c-10.4,0.1-20.8,0.1-31.2,0c-4,0-6-2.1-6-5.8c0-3.6,2-5.5,6.1-5.5C471.5,250.1,476.7,250.1,482,250.1z"/>
		<path fill="#FFFFFF" d="M250.5,481.3c0-5.1-0.1-10.3,0-15.4c0.1-4,2-6.1,5.6-6.1c3.6,0,5.6,2.1,5.6,6.1c0.1,10.4,0.1,20.8,0,31.1
			c0,3.9-2.2,6.2-5.6,6.2c-3.4,0-5.6-2.3-5.6-6.2C250.4,491.8,250.5,486.5,250.5,481.3z"/>
		<path fill="#FFFFFF" d="M30.3,261.4c-5,0-10,0.1-15,0c-4.2-0.1-6.6-2.2-6.6-5.7c0-3.6,2.3-5.6,6.6-5.6c10,0,20,0,30.1,0
			c4,0,6.3,2,6.4,5.4c0.1,3.6-2.2,5.8-6.4,5.9C40.3,261.5,35.3,261.4,30.3,261.4z"/>
		<path fill="#FFFFFF" d="M261.7,30.1c0,5.1,0.1,10.3,0,15.4c-0.1,3.7-2.1,5.9-5.4,6c-3.4,0.1-5.8-2.2-5.8-6
			c-0.1-10.4-0.1-20.8,0-31.2c0-3.6,2.3-5.9,5.4-6c3.3-0.1,5.7,2.3,5.8,6C261.8,19.6,261.7,24.8,261.7,30.1z"/>
	</g>
</g>
</svg>
