<?xml version="1.0" encoding="UTF-8" standalone="no"?>
<!-- Generator: Adobe Illustrator 25.0.1, SVG Export Plug-In . SVG Version: 6.00 Build 0)  -->

<svg
   version="1.1"
   id="Calque_1"
   x="0px"
   y="0px"
   viewBox="0 0 512 512"
   enable-background="new 0 0 512 512"
   xml:space="preserve"
   sodipodi:docname="logo.svg"
   inkscape:version="1.1.2 (0a00cf5339, 2022-02-04)"
   xmlns:inkscape="http://www.inkscape.org/namespaces/inkscape"
   xmlns:sodipodi="http://sodipodi.sourceforge.net/DTD/sodipodi-0.dtd"
   xmlns="http://www.w3.org/2000/svg"
   xmlns:svg="http://www.w3.org/2000/svg"><defs
   id="defs151" /><sodipodi:namedview
   id="namedview149"
   pagecolor="#ffffff"
   bordercolor="#666666"
   borderopacity="1.0"
   inkscape:pageshadow="2"
   inkscape:pageopacity="0.0"
   inkscape:pagecheckerboard="0"
   showgrid="false"
   inkscape:zoom="1.5585938"
   inkscape:cx="129.28321"
   inkscape:cy="255.3584"
   inkscape:window-width="1920"
   inkscape:window-height="1013"
   inkscape:window-x="0"
   inkscape:window-y="30"
   inkscape:window-maximized="1"
   inkscape:current-layer="Calque_1" />
<g
   id="g146">
	<path
   fill="#7F62A7"
   d="M103.9,343.2c-0.1,8.3,3.4,19.3,4.2,21.4l0.7,2l1.2,1.7c12.8,17.2,27.3,20.8,37.2,20.8   c20,0,34.9-14.2,36.5-15.8l1.3-1.3l0.9-1.6l38-68.2l32.1-0.5l32.1,0.5l38,68.2l0.9,1.7l1.3,1.3c1.6,1.6,16.6,15.8,36.5,15.8   c9.9,0,24.4-3.6,37.2-20.8l1.2-1.7l0.7-2c0.7-2.1,4.3-13.1,4.2-21.6l-0.9-121l0-1.2l-0.2-1.2c-3.8-19.7-22-56.9-64.3-56.9   c-7,0-14.3,1.1-22,3.1c-7.8-12.4-21.7-20.7-37.4-20.7h-60.3c-15.3,0-28.7,7.8-36.7,19.5c-5.9-1.2-11.5-1.9-17-1.9h0   c-42.3,0-60.6,37.2-64.3,56.9l-0.2,1.2l0,1.2 M223.1,158.4h60.3c9.8,0,18.6,4.7,24.3,11.9c-1.1,0.4-2.2,0.9-3.3,1.3l-1.4,0.6   l-1.2,0.9c-0.2,0.1-21.6,15.3-45.7,15.4c-24-0.1-45.4-15.3-45.6-15.4l-1.2-0.9l-1.4-0.6c-2.6-1.1-5.2-2.1-7.7-3   C205.8,162.3,214,158.4,223.1,158.4z M118,222.2c0,0,8.8-46.2,51.4-46.2c3.5,0,7.2,0.3,11.2,1c4,0.7,8.3,1.7,12.8,3.2   c3,1,6.1,2.1,9.3,3.5c0,0,24.5,17.9,53.4,17.9c28.9-0.1,53.4-17.9,53.4-17.9c1.3-0.6,2.7-1.1,4-1.6c4.4-1.7,8.6-3,12.6-4   c6.1-1.5,11.6-2.2,16.7-2.2c42.5,0,51.4,46.2,51.4,46.2l0.9,121.1c0.1,6.6-3.5,17.1-3.5,17.1c-8.7,11.7-18.1,15.5-26.6,15.5   c-15.1,0-27.3-12-27.3-12l-41.7-74.8l-40-0.7l-40,0.7l-41.7,74.8c0,0-12.1,12-27.3,12c-8.5,0-17.9-3.8-26.6-15.5   c0,0-3.6-10.5-3.5-17.1"
   id="path104" />
	<g
   id="g110">
		<circle
   fill="#FFFFFF"
   cx="172.3"
   cy="240.7"
   r="26.4"
   id="circle106" />
		<path
   fill="#7F62A7"
   d="M172.3,214.3c14.6,0,26.4,11.8,26.4,26.4c0,14.6-11.8,26.4-26.4,26.4c-14.6,0-26.4-11.8-26.4-26.4    C145.9,226.2,157.8,214.3,172.3,214.3 M172.3,201.1c-21.8,0-39.6,17.8-39.6,39.6c0,21.8,17.8,39.6,39.6,39.6s39.6-17.8,39.6-39.6    C211.9,218.9,194.2,201.1,172.3,201.1L172.3,201.1z"
   id="path108" />
	</g>
	<g
   id="g116">
		<path
   fill="#FFFFFF"
   d="M362.4,237.4h-16.3V221c0-1.9-1.5-3.4-3.4-3.4h0c-1.9,0-3.4,1.5-3.4,3.4v16.3h-16.3    c-1.9,0-3.4,1.5-3.4,3.4s1.5,3.4,3.4,3.4h16.3v16.3c0,1.9,1.5,3.4,3.4,3.4h0c1.9,0,3.4-1.5,3.4-3.4v-16.3h16.3    c1.9,0,3.4-1.5,3.4-3.4S364.3,237.4,362.4,237.4z"
   id="path112" />
		<path
   fill="#7F62A7"
   d="M342.7,217.7c1.9,0,3.4,1.5,3.4,3.4v16.3h16.3c1.9,0,3.4,1.5,3.4,3.4s-1.5,3.4-3.4,3.4h-16.3v16.3    c0,1.9-1.5,3.4-3.4,3.4h0c-1.9,0-3.4-1.5-3.4-3.4v-16.3h-16.3c-1.9,0-3.4-1.5-3.4-3.4s1.5-3.4,3.4-3.4h16.3V221    C339.4,219.2,340.9,217.7,342.7,217.7L342.7,217.7 M342.7,207.8c-7.3,0-13.3,6-13.3,13.3v6.4h-6.4c-7.3,0-13.3,6-13.3,13.3    c0,7.3,6,13.3,13.3,13.3h6.4v6.4c0,7.3,6,13.3,13.3,13.3c7.3,0,13.3-6,13.3-13.3V254h6.4c7.3,0,13.3-6,13.3-13.3    c0-7.3-6-13.3-13.3-13.3H356V221C356,213.7,350.1,207.8,342.7,207.8L342.7,207.8z"
   id="path114" />
	</g>
	<g
   id="g144">
		<path
   fill="#FFFFFF"
   d="M253.6,129c0.1-1.9,0.9-3.2,3.1-3.1c2,0.1,2.6,1.4,2.7,3.1c1.5,2.1,1.1,4.5,1.1,6.8    c0,4.1,0.1,8.1-0.1,12.2c0.1,5.8,0.2,11.6,0,17.4c0.1,6.1,0.1,12.2,0,18.2c-0.3,17.6,0,35.3-0.1,52.9c0,2.6,1,4,3.3,5.2    c6.6,3.4,10.1,9.9,8.9,16.1c-1.4,7.1-6.5,12-14.2,12.8c-5.4,0.6-10.2-1.3-13.6-5.8c-3.7-4.9-4.5-10.5-1.6-16    c1.5-2.9,1.3-5.1-0.2-7.7c-13.3-22.7-26.4-45.6-39.6-68.3c-1-1.7-2.2-3.3-3.2-5c-3.9-8.2-8.9-15.7-13.2-23.6    c-0.7-1.3-1.5-2.5-1.4-4c-7.3-12.6-14.5-25.3-21.8-37.9c-0.6-1-1.2-2-1.7-3.1c-0.6-1.6,0-2.9,1.4-3.7c1.4-0.8,2.6-0.2,3.4,1    c0.7,1,1.3,2,1.9,3c7.7,13.3,15.4,26.6,23.1,39.9c0.8,1.4,1.7,2.7,2.5,4c4.7,5.1,7.2,11.6,10.8,17.3c3,4.8,5.5,9.9,8.5,14.6    c0.2,0.3,0.4,0.7,0.6,1c12.3,21.2,24.4,42.4,37.4,63.4c1.2-6.1,0.8-12.1,0.8-18.1c0.1-6.2,0-12.4,0-18.6c0-6.2,0.1-12.4-0.1-18.6    c-0.1-6.3-0.1-12.7,0-19c-0.1-5.8-0.1-11.6,0-17.4c-0.2-4.9-0.1-9.7-0.1-14.6C252.5,131.9,252.6,130.4,253.6,129z"
   id="path118" />
		<path
   fill="#FFFFFF"
   d="M361.1,430.8c2.4,0.2,3.9,1.4,4.9,3.2c5.3,9.4,10.6,18.8,15.8,28.2c1.7,3.1,0.7,6.2-2,7.8    c-2.8,1.7-5.9,1-7.7-2.2c-5.4-9.5-10.8-19-16-28.5C353.9,435.4,356.9,430.7,361.1,430.8z"
   id="path120" />
		<path
   fill="#FFFFFF"
   d="M465.8,129.1c2.7,0.2,4.3,1.8,5.1,4.2c0.9,2.6,0,4.7-2.2,6.1c-3.5,2.3-7.2,4.4-10.8,6.5    c-5.4,3.2-10.8,6.5-16.2,9.7c-3.9,2.3-7,1.8-8.9-1.3c-1.9-3.1-1-6.2,2.9-8.5c8.8-5.2,17.6-10.4,26.5-15.6    C463.3,129.7,464.4,129,465.8,129.1z"
   id="path122" />
		<path
   fill="#FFFFFF"
   d="M158,436.2c0.1,2.6-0.6,3.9-1.3,5.1c-5.3,8.6-10.6,17.3-15.9,25.9c-2.5,4-5.2,4.7-8.6,2.6    c-3.1-1.9-3.5-4.6-1.1-8.5c5.4-8.9,10.9-17.7,16.3-26.5c1.7-2.7,4-3.3,6.8-2.4C156.5,433,157.9,434.7,158,436.2z"
   id="path124" />
		<path
   fill="#FFFFFF"
   d="M46.8,382.4c-3.3-0.1-4.8-1.8-5.6-4.2c-0.8-2.6,0.1-4.7,2.3-6.1c4.6-2.8,9.2-5.6,13.8-8.3    c4.7-2.8,9.5-5.7,14.2-8.5c3.2-1.9,6-1.2,7.7,1.7c1.7,3,1.1,6-1.9,7.8c-9.2,5.6-18.5,11.1-27.7,16.6    C48.7,382,47.6,382.5,46.8,382.4z"
   id="path126" />
		<path
   fill="#FFFFFF"
   d="M74.6,156.2c-1.1,0.1-2.2-0.5-3.4-1.1c-8.9-5-17.9-10-26.8-15c-3.5-2-4.4-4.3-2.8-7.4    c1.6-3.2,4.6-4.4,7.9-2.6c9.5,5.1,18.9,10.4,28.3,15.6c2.6,1.4,3.4,3.7,2.6,6.3C79.7,154.7,77.8,156.2,74.6,156.2z"
   id="path128" />
		<path
   fill="#FFFFFF"
   d="M362.5,80.3c-4.8-0.1-7.7-4-5.9-7.7c5.1-9.9,10.4-19.7,15.8-29.5c1.5-2.7,4.2-3.2,6.8-1.7    c2.6,1.5,4.5,3.9,2.9,6.9c-5.2,10-10.6,19.9-16,29.9C365.3,79.6,363.8,80.5,362.5,80.3z"
   id="path130" />
		<path
   fill="#FFFFFF"
   d="M437.6,355.1c1.7,0.1,2.9,0.6,4,1.2c8.6,5,17.3,10,25.9,15c3.7,2.2,4.6,5,2.8,8.2c-1.8,3-4.6,3.7-8.2,1.7    c-9-5.1-18-10.3-27-15.4c-2.6-1.5-3.3-3.6-2.6-6.3C433.3,356.8,435.2,355.4,437.6,355.1z"
   id="path132" />
		<path
   fill="#FFFFFF"
   d="M156.5,72.5c-0.3,3.7-1.7,5.7-4.1,6.5c-2.7,1-5,0.1-6.5-2.4c-2.8-4.6-5.4-9.3-8-14    c-2.5-4.5-5.1-8.9-7.6-13.4c-1.7-3.2-0.9-6.1,2-7.8c2.9-1.7,5.9-1.1,7.7,2.1c5.2,9,10.3,18,15.4,27.1    C156,71.6,156.5,72.5,156.5,72.5z"
   id="path134" />
		<path
   fill="#FFFFFF"
   d="M482,250.1c5.1,0,10.3-0.1,15.4,0c3.9,0.1,6.2,2.3,6.1,5.7c-0.1,3.4-2.3,5.6-6.3,5.6    c-10.4,0.1-20.8,0.1-31.2,0c-4,0-6-2.1-6-5.8c0-3.6,2-5.5,6.1-5.5C471.5,250.1,476.7,250.1,482,250.1z"
   id="path136" />
		<path
   fill="#FFFFFF"
   d="M250.5,481.3c0-5.1-0.1-10.3,0-15.4c0.1-4,2-6.1,5.6-6.1c3.6,0,5.6,2.1,5.6,6.1c0.1,10.4,0.1,20.8,0,31.1    c0,3.9-2.2,6.2-5.6,6.2c-3.4,0-5.6-2.3-5.6-6.2C250.4,491.8,250.5,486.5,250.5,481.3z"
   id="path138" />
		<path
   fill="#FFFFFF"
   d="M30.3,261.4c-5,0-10,0.1-15,0c-4.2-0.1-6.6-2.2-6.6-5.7c0-3.6,2.3-5.6,6.6-5.6c10,0,20,0,30.1,0    c4,0,6.3,2,6.4,5.4c0.1,3.6-2.2,5.8-6.4,5.9C40.3,261.5,35.3,261.4,30.3,261.4z"
   id="path140" />
		<path
   fill="#FFFFFF"
   d="M261.7,30.1c0,5.1,0.1,10.3,0,15.4c-0.1,3.7-2.1,5.9-5.4,6c-3.4,0.1-5.8-2.2-5.8-6    c-0.1-10.4-0.1-20.8,0-31.2c0-3.6,2.3-5.9,5.4-6c3.3-0.1,5.7,2.3,5.8,6C261.8,19.6,261.7,24.8,261.7,30.1z"
   id="path142" />
	</g>
</g>
<path
   style="fill:#935482;stroke-width:0.641604;fill-opacity:1"
   d="m 139.22807,387.90768 c -9.48136,-2.18813 -16.79029,-6.54931 -24.23022,-14.458 -5.48206,-5.82747 -6.23359,-7.20435 -8.6482,-15.84442 l -1.7682,-6.32706 0.21282,-65.12281 c 0.20071,-61.41952 0.28202,-65.39645 1.42981,-69.93484 4.30896,-17.03781 15.33042,-33.61176 28.13268,-42.30561 5.81679,-3.9501 13.74841,-7.50372 20.34873,-9.11688 6.80174,-1.66239 19.70704,-1.96346 27.04868,-0.63102 l 4.67146,0.84782 1.41463,-1.82573 c 0.77806,-1.00414 2.42928,-2.92493 3.66939,-4.2684 l 2.25476,-2.44268 3.38729,6.2923 c 1.86301,3.46077 5.9523,10.62313 9.0873,15.91637 3.13501,5.29323 5.59188,9.73312 5.45973,9.86643 -0.13216,0.1333 -2.34475,-1.05376 -4.91687,-2.63792 -12.91088,-7.95172 -33.60647,-11.96878 -47.36032,-9.19273 -18.79629,3.7938 -32.53305,17.17604 -39.75345,38.72748 l -1.87959,5.6102 -0.64475,62.07301 c -0.6686,64.36833 -0.65465,64.89186 1.96757,73.84194 1.15258,3.93395 1.79316,4.91037 5.89292,8.98246 11.36498,11.28828 24.27657,13.09555 38.98491,5.45682 9.38842,-4.87585 9.12409,-4.49941 31.75518,-45.22203 l 20.35928,-36.63469 10.96574,-0.41598 c 14.08274,-0.53423 43.77972,-0.53418 57.86356,8e-5 l 10.96801,0.41607 20.70303,37.12746 c 23.22543,41.65095 22.12076,40.11508 32.42863,45.08733 6.78478,3.27281 10.32056,4.21008 15.84301,4.19968 8.42011,-0.0158 15.0966,-3.03857 22.12017,-10.01474 4.09782,-4.07016 4.74116,-5.05037 5.8954,-8.98246 2.60584,-8.87718 2.63406,-9.88947 2.07254,-74.34856 l -0.54215,-62.23559 -2.06154,-5.77444 c -12.23641,-34.27458 -39.5765,-46.55778 -75.66732,-33.99539 -3.56736,1.24172 -8.01434,3.23526 -9.88218,4.4301 -12.16308,7.78063 -29.97871,14.42568 -41.66765,15.54161 l -4.33083,0.41346 v -6.14806 -6.14806 l 3.04762,-0.43216 c 11.65298,-1.65244 25.61743,-6.92394 36.09022,-13.62387 1.94086,-1.24166 4.46717,-2.65067 5.61404,-3.13114 1.14687,-0.48047 2.08521,-1.11892 2.08521,-1.41878 0,-0.92245 -5.95064,-6.16963 -8.99184,-7.92886 -5.70565,-3.30051 -8.87071,-3.85425 -23.89036,-4.17969 l -13.95489,-0.30237 v -6.02461 -6.02461 h 14.01266 c 11.74773,0 14.79599,0.20034 18.859,1.23949 9.33034,2.3863 17.85476,7.84488 23.76105,15.21531 2.90465,3.62469 3.52434,4.09261 4.94313,3.73248 7.27011,-1.84538 12.12608,-2.41275 20.54947,-2.40098 7.87299,0.011 10.24723,0.26214 15.4433,1.63353 19.77471,5.21913 35.24038,19.73952 44.21963,41.51688 4.53032,10.98736 4.3246,7.66502 4.78825,77.32895 0.45778,68.78282 0.54486,66.69012 -3.27862,78.79356 -1.56291,4.94747 -1.82211,5.31281 -8.45511,11.9171 -7.75843,7.72487 -12.78606,10.81835 -20.99409,12.91761 -12.0493,3.08169 -25.43255,0.25245 -37.7482,-7.98003 -2.86178,-1.91298 -6.3852,-4.72769 -7.82984,-6.25492 -1.72723,-1.82597 -9.07062,-14.38563 -21.44621,-36.68018 -14.32655,-25.80922 -19.18556,-34.04255 -20.3525,-34.48622 -1.99623,-0.75896 -60.56454,-0.76167 -62.56029,-0.003 -1.1554,0.43928 -6.10299,8.80259 -20.40149,34.48622 -10.38191,18.64846 -19.87705,35.01542 -21.10031,36.37102 -4.83717,5.36045 -16.48164,12.059 -24.74567,14.23506 -5.46149,1.43811 -14.57212,1.76072 -19.24812,0.68159 z"
   id="path20966" /><path
   style="fill:#935482;fill-opacity:1;stroke-width:0.641604"
   d="m 162.78537,278.78053 c -12.92058,-3.5533 -23.73564,-13.77774 -27.82911,-26.30935 -1.33259,-4.07953 -1.68541,-6.44947 -1.71936,-11.54887 -0.0738,-11.09107 3.59522,-19.82377 11.73116,-27.92141 10.002,-9.95491 23.44919,-13.70099 36.86508,-10.26979 19.93655,5.09891 32.93159,25.27102 28.97218,44.97332 -3.05978,15.22572 -14.2701,27.19565 -29.05875,31.02778 -4.68909,1.21506 -14.62656,1.24039 -18.9612,0.0483 z m 14.37017,-11.87665 c 8.43996,-1.57515 15.54928,-7.17085 19.37741,-15.25182 1.89329,-3.99664 2.04349,-4.80889 2.04349,-11.05056 0,-6.21688 -0.15402,-7.05872 -1.99562,-10.90726 -2.92521,-6.11309 -6.50485,-9.79911 -12.29204,-12.65735 -4.7735,-2.35758 -5.08441,-2.42035 -11.98817,-2.42035 -6.03386,0 -7.56452,0.21908 -10.2956,1.47358 -5.10566,2.34525 -8.04808,4.66915 -11.02711,8.70914 -14.35561,19.46826 2.46904,46.52935 26.17764,42.10462 z"
   id="path22079" /><path
   style="fill:#935482;fill-opacity:1;stroke-width:0.641604"
   d="m 336.78262,271.83044 c -1.55525,-0.82108 -3.6939,-2.72239 -4.75254,-4.22513 -1.6938,-2.40434 -1.95154,-3.36977 -2.14747,-8.04378 l -0.22265,-5.31151 -5.12819,-0.3515 c -6.83527,-0.4685 -10.35469,-2.51365 -12.87262,-7.48035 -2.6288,-5.18538 -2.10002,-9.70272 1.6335,-13.95497 2.93615,-3.34408 6.27272,-4.66282 11.84018,-4.67969 l 4.65163,-0.0141 0.0141,-4.65163 c 0.0171,-5.64761 1.39553,-9.0583 4.79251,-11.85839 4.62072,-3.80878 10.4924,-4.03123 15.68603,-0.59425 3.59235,2.3773 5.17153,6.09477 5.17153,12.17401 v 4.93026 l 4.33083,0.004 c 5.96457,0.005 8.59164,0.87937 11.5602,3.84794 6.12134,6.12134 4.76761,16.08667 -2.76483,20.35303 -2.05736,1.16527 -3.54507,1.44049 -7.83297,1.44904 l -5.29323,0.0105 v 5.1584 c 0,3.80864 -0.31943,5.78126 -1.22077,7.53884 -3.35806,6.54811 -11.06723,9.06681 -17.44523,5.69962 z m 8.40034,-8.7728 c 1.15621,-1.15621 1.28321,-2.13868 1.28321,-9.92724 v -8.64404 l 9.13512,-0.17802 9.13513,-0.17801 0.86113,-1.7986 c 0.74141,-1.54854 0.71812,-2.01684 -0.16746,-3.36842 -1.00999,-1.54143 -1.19082,-1.56983 -9.99626,-1.56983 h -8.96766 v -8.77153 c 0,-9.71057 -0.49537,-11.11819 -3.91269,-11.11819 -3.18857,0 -3.78656,1.79574 -3.78656,11.37083 v 8.51889 h -8.85414 c -6.03108,0 -9.09962,0.24549 -9.62406,0.76993 -1.25376,1.25376 -0.95147,4.8622 0.47111,5.62354 0.68256,0.3653 4.99156,0.66418 9.57556,0.66418 h 8.33454 l 0.20889,9.03555 c 0.18647,8.06521 0.34265,9.1332 1.45434,9.94486 1.72668,1.26068 3.33957,1.13633 4.8498,-0.3739 z"
   id="path22118" /><path
   style="fill:#935482;fill-opacity:1;stroke-width:0.641604"
   d="m 205.12793,159.97257 c -1.75249,-2.77768 -4.30587,-7.66588 -4.30587,-8.24316 0,-0.73852 6.90674,-3.53279 11.86944,-4.80203 4.40568,-1.12679 7.11742,-1.28327 22.2382,-1.28327 h 17.22068 v 6.02178 6.02177 l -17.48371,0.2916 c -18.54143,0.30923 -18.20604,0.25951 -26.90601,3.98856 -0.80821,0.34642 -1.47339,-0.1577 -2.63273,-1.99525 z"
   id="path22157" /><path
   style="fill:#935482;fill-opacity:1;stroke-width:0.641604"
   d="m 247.33835,200.72651 c -5.25716,-0.67285 -13.31423,-2.54815 -18.21854,-4.24041 l -3.46165,-1.19446 -5.12093,-8.80928 c -2.81651,-4.8451 -4.98453,-8.94567 -4.81783,-9.11237 0.16671,-0.16671 3.30706,1.11688 6.97857,2.85241 8.64395,4.08602 15.43684,6.30894 23.19677,7.59095 l 6.25564,1.0335 v 6.3084 c 0,3.46963 -0.0722,6.27189 -0.16041,6.22725 -0.0882,-0.0446 -2.18145,-0.33983 -4.65162,-0.65599 z"
   id="path22196" /></svg>
